M48
; DRILL file {KiCad (5.1.9)-1} date 02/07/21 21:54:00
; FORMAT={-:-/ absolute / inch / decimal}
; #@! TF.CreationDate,2021-02-07T21:54:00-06:00
; #@! TF.GenerationSoftware,Kicad,Pcbnew,(5.1.9)-1
; #@! TF.FileFunction,Plated,1,2,PTH
FMAT,2
INCH
T1C0.0157
T2C0.0354
%
G90
G05
T1
X0.9843Y-2.8543
X1.0236Y-2.7283
X1.0315Y-3.0079
X1.0354Y-2.9173
X1.0512Y-3.3228
X1.0866Y-3.7165
X1.126Y-3.7165
X1.1614Y-2.7913
X1.1654Y-2.9803
X1.1654Y-3.7165
X1.2047Y-2.9331
X1.2047Y-3.7165
X1.2323Y-2.7165
X1.2441Y-3.7165
X1.2835Y-3.7165
X1.3386Y-3.252
X1.3386Y-3.3031
X1.3543Y-3.0157
X1.3661Y-2.7244
X1.3661Y-3.6417
X1.437Y-3.252
X1.4409Y-3.3031
X1.4567Y-3.7087
X1.4843Y-3.0118
X1.4882Y-2.8819
X1.5512Y-3.6417
X1.5787Y-3.2756
X1.626Y-2.752
X1.626Y-2.874
X1.626Y-3.0118
X1.6575Y-3.2795
T2
X0.963Y-2.5768
X1.063Y-2.5768
X1.163Y-2.5768
X1.263Y-2.5768
X1.363Y-2.5768
X1.463Y-2.5768
X1.563Y-2.5768
X1.663Y-2.5768
T0
M30
