G04 #@! TF.GenerationSoftware,KiCad,Pcbnew,(5.1.9)-1*
G04 #@! TF.CreationDate,2021-02-07T21:53:58-06:00*
G04 #@! TF.ProjectId,epaper-102,65706170-6572-42d3-9130-322e6b696361,rev?*
G04 #@! TF.SameCoordinates,Original*
G04 #@! TF.FileFunction,Copper,L1,Top*
G04 #@! TF.FilePolarity,Positive*
%FSLAX46Y46*%
G04 Gerber Fmt 4.6, Leading zero omitted, Abs format (unit mm)*
G04 Created by KiCad (PCBNEW (5.1.9)-1) date 2021-02-07 21:53:58*
%MOMM*%
%LPD*%
G01*
G04 APERTURE LIST*
G04 #@! TA.AperFunction,ComponentPad*
%ADD10C,1.400000*%
G04 #@! TD*
G04 #@! TA.AperFunction,ViaPad*
%ADD11C,0.800000*%
G04 #@! TD*
G04 #@! TA.AperFunction,Conductor*
%ADD12C,0.250000*%
G04 #@! TD*
G04 #@! TA.AperFunction,Conductor*
%ADD13C,0.254000*%
G04 #@! TD*
G04 #@! TA.AperFunction,Conductor*
%ADD14C,0.100000*%
G04 #@! TD*
G04 APERTURE END LIST*
D10*
X42239800Y-65450000D03*
X39699800Y-65450000D03*
X37159800Y-65450000D03*
X34619800Y-65450000D03*
X32079800Y-65450000D03*
X29539800Y-65450000D03*
X26999800Y-65450000D03*
X24459800Y-65450000D03*
D11*
X34400000Y-76600000D03*
X37700000Y-76500000D03*
X41300000Y-76500000D03*
X37800000Y-73200000D03*
X41300000Y-73000000D03*
X41300000Y-69900000D03*
X26200000Y-76400000D03*
X26300000Y-74100000D03*
X26000000Y-69300000D03*
X34700000Y-92500000D03*
X39400000Y-92500000D03*
X37000000Y-94200000D03*
X31300000Y-69000000D03*
X29500000Y-70900000D03*
X26700000Y-84400000D03*
X34000000Y-82600000D03*
X34000000Y-83900000D03*
X36500000Y-82600000D03*
X36600000Y-83900000D03*
X40100000Y-83200000D03*
X42100000Y-83300000D03*
X25000000Y-72500000D03*
X32600015Y-94400000D03*
X31600012Y-94400000D03*
X30600009Y-94400000D03*
X30600000Y-74500000D03*
X29600006Y-94400000D03*
X29600000Y-75700000D03*
X28600003Y-94400000D03*
X34700000Y-69200000D03*
X27600000Y-94400000D03*
D12*
X25029800Y-72500000D02*
X25000000Y-72500000D01*
X32079800Y-65450000D02*
X25029800Y-72500000D01*
X32600015Y-75089785D02*
X42239800Y-65450000D01*
X32600015Y-94400000D02*
X32600015Y-75089785D01*
X31600012Y-73549788D02*
X39699800Y-65450000D01*
X31600012Y-94400000D02*
X31600012Y-73549788D01*
X30600009Y-74500009D02*
X30600000Y-74500000D01*
X30600009Y-94400000D02*
X30600009Y-74500009D01*
X29600006Y-75700006D02*
X29600000Y-75700000D01*
X29600006Y-94400000D02*
X29600006Y-75700006D01*
X28600003Y-75299997D02*
X34700000Y-69200000D01*
X28600003Y-94400000D02*
X28600003Y-75299997D01*
X27600000Y-75009800D02*
X37159800Y-65450000D01*
X27600000Y-94400000D02*
X27600000Y-75009800D01*
D13*
X42426148Y-63465413D02*
X42499397Y-63487528D01*
X42566961Y-63523452D01*
X42626254Y-63571811D01*
X42675027Y-63630767D01*
X42711420Y-63698074D01*
X42734045Y-63771167D01*
X42744001Y-63865886D01*
X42744001Y-64488782D01*
X42555116Y-64410543D01*
X42346269Y-64369000D01*
X42133331Y-64369000D01*
X41924484Y-64410543D01*
X41727755Y-64492031D01*
X41550703Y-64610333D01*
X41400133Y-64760903D01*
X41281831Y-64937955D01*
X41200343Y-65134684D01*
X41158800Y-65343531D01*
X41158800Y-65556469D01*
X41200343Y-65765316D01*
X41202847Y-65771361D01*
X32259796Y-74714413D01*
X32240489Y-74730258D01*
X32177257Y-74807306D01*
X32152142Y-74854293D01*
X32130270Y-74895211D01*
X32106012Y-74975181D01*
X32106012Y-73759379D01*
X39378439Y-66486953D01*
X39384484Y-66489457D01*
X39593331Y-66531000D01*
X39806269Y-66531000D01*
X40015116Y-66489457D01*
X40211845Y-66407969D01*
X40388897Y-66289667D01*
X40539467Y-66139097D01*
X40657769Y-65962045D01*
X40739257Y-65765316D01*
X40780800Y-65556469D01*
X40780800Y-65343531D01*
X40739257Y-65134684D01*
X40657769Y-64937955D01*
X40539467Y-64760903D01*
X40388897Y-64610333D01*
X40211845Y-64492031D01*
X40015116Y-64410543D01*
X39806269Y-64369000D01*
X39593331Y-64369000D01*
X39384484Y-64410543D01*
X39187755Y-64492031D01*
X39010703Y-64610333D01*
X38860133Y-64760903D01*
X38741831Y-64937955D01*
X38660343Y-65134684D01*
X38618800Y-65343531D01*
X38618800Y-65556469D01*
X38660343Y-65765316D01*
X38662847Y-65771361D01*
X35452817Y-68981391D01*
X35450987Y-68972191D01*
X35392113Y-68830058D01*
X35306642Y-68702141D01*
X35197859Y-68593358D01*
X35069942Y-68507887D01*
X34927809Y-68449013D01*
X34884911Y-68440480D01*
X36838439Y-66486953D01*
X36844484Y-66489457D01*
X37053331Y-66531000D01*
X37266269Y-66531000D01*
X37475116Y-66489457D01*
X37671845Y-66407969D01*
X37848897Y-66289667D01*
X37999467Y-66139097D01*
X38117769Y-65962045D01*
X38199257Y-65765316D01*
X38240800Y-65556469D01*
X38240800Y-65343531D01*
X38199257Y-65134684D01*
X38117769Y-64937955D01*
X37999467Y-64760903D01*
X37848897Y-64610333D01*
X37671845Y-64492031D01*
X37475116Y-64410543D01*
X37266269Y-64369000D01*
X37053331Y-64369000D01*
X36844484Y-64410543D01*
X36647755Y-64492031D01*
X36470703Y-64610333D01*
X36320133Y-64760903D01*
X36201831Y-64937955D01*
X36120343Y-65134684D01*
X36078800Y-65343531D01*
X36078800Y-65556469D01*
X36120343Y-65765316D01*
X36122847Y-65771361D01*
X27259781Y-74634428D01*
X27240474Y-74650273D01*
X27177242Y-74727321D01*
X27165353Y-74749564D01*
X27130255Y-74815226D01*
X27101322Y-74910608D01*
X27091553Y-75009800D01*
X27094001Y-75034656D01*
X27094000Y-93801499D01*
X26993358Y-93902141D01*
X26907887Y-94030058D01*
X26849013Y-94172191D01*
X26819000Y-94323078D01*
X26819000Y-94476922D01*
X26849013Y-94627809D01*
X26907887Y-94769942D01*
X26993358Y-94897859D01*
X27102141Y-95006642D01*
X27230058Y-95092113D01*
X27372191Y-95150987D01*
X27523078Y-95181000D01*
X27676922Y-95181000D01*
X27827809Y-95150987D01*
X27969942Y-95092113D01*
X28097859Y-95006642D01*
X28100002Y-95004500D01*
X28102144Y-95006642D01*
X28230061Y-95092113D01*
X28372194Y-95150987D01*
X28523081Y-95181000D01*
X28676925Y-95181000D01*
X28827812Y-95150987D01*
X28969945Y-95092113D01*
X29097862Y-95006642D01*
X29100005Y-95004500D01*
X29102147Y-95006642D01*
X29230064Y-95092113D01*
X29372197Y-95150987D01*
X29523084Y-95181000D01*
X29676928Y-95181000D01*
X29827815Y-95150987D01*
X29969948Y-95092113D01*
X30097865Y-95006642D01*
X30100008Y-95004500D01*
X30102150Y-95006642D01*
X30230067Y-95092113D01*
X30372200Y-95150987D01*
X30523087Y-95181000D01*
X30676931Y-95181000D01*
X30827818Y-95150987D01*
X30969951Y-95092113D01*
X31097868Y-95006642D01*
X31100011Y-95004500D01*
X31102153Y-95006642D01*
X31230070Y-95092113D01*
X31372203Y-95150987D01*
X31523090Y-95181000D01*
X31676934Y-95181000D01*
X31827821Y-95150987D01*
X31969954Y-95092113D01*
X32097871Y-95006642D01*
X32100014Y-95004500D01*
X32102156Y-95006642D01*
X32230073Y-95092113D01*
X32372206Y-95150987D01*
X32523093Y-95181000D01*
X32676937Y-95181000D01*
X32827824Y-95150987D01*
X32969957Y-95092113D01*
X33097874Y-95006642D01*
X33206657Y-94897859D01*
X33292128Y-94769942D01*
X33351002Y-94627809D01*
X33381015Y-94476922D01*
X33381015Y-94323078D01*
X33351002Y-94172191D01*
X33292128Y-94030058D01*
X33206657Y-93902141D01*
X33106015Y-93801499D01*
X33106015Y-75299376D01*
X41918439Y-66486953D01*
X41924484Y-66489457D01*
X42133331Y-66531000D01*
X42346269Y-66531000D01*
X42555116Y-66489457D01*
X42744001Y-66411218D01*
X42744000Y-100830146D01*
X42734587Y-100926148D01*
X42712471Y-100999401D01*
X42676548Y-101066961D01*
X42628190Y-101126254D01*
X42569232Y-101175027D01*
X42501924Y-101211421D01*
X42428837Y-101234045D01*
X42334123Y-101244000D01*
X41775024Y-101244000D01*
X40901582Y-99846493D01*
X40889210Y-99823347D01*
X40867745Y-99797192D01*
X40847122Y-99770442D01*
X40842429Y-99766345D01*
X40838474Y-99761526D01*
X40812336Y-99740075D01*
X40786875Y-99717848D01*
X40781472Y-99714745D01*
X40776653Y-99710790D01*
X40746826Y-99694847D01*
X40717523Y-99678018D01*
X40711620Y-99676029D01*
X40706121Y-99673090D01*
X40673752Y-99663271D01*
X40641734Y-99652484D01*
X40635557Y-99651685D01*
X40629590Y-99649875D01*
X40595941Y-99646561D01*
X40562420Y-99642225D01*
X40536251Y-99644000D01*
X30063744Y-99644000D01*
X30037579Y-99642225D01*
X30004055Y-99646561D01*
X29970410Y-99649875D01*
X29964444Y-99651685D01*
X29958265Y-99652484D01*
X29926238Y-99663274D01*
X29893879Y-99673090D01*
X29888382Y-99676028D01*
X29882476Y-99678018D01*
X29853160Y-99694855D01*
X29823347Y-99710790D01*
X29818530Y-99714743D01*
X29813124Y-99717848D01*
X29787656Y-99740082D01*
X29761526Y-99761526D01*
X29757571Y-99766345D01*
X29752877Y-99770443D01*
X29732245Y-99797205D01*
X29710790Y-99823347D01*
X29698424Y-99846482D01*
X28824976Y-101244000D01*
X24369854Y-101244000D01*
X24273852Y-101234587D01*
X24200599Y-101212471D01*
X24133039Y-101176548D01*
X24073746Y-101128190D01*
X24024973Y-101069232D01*
X23988579Y-101001924D01*
X23965955Y-100928837D01*
X23956000Y-100834123D01*
X23956000Y-72423078D01*
X24219000Y-72423078D01*
X24219000Y-72576922D01*
X24249013Y-72727809D01*
X24307887Y-72869942D01*
X24393358Y-72997859D01*
X24502141Y-73106642D01*
X24630058Y-73192113D01*
X24772191Y-73250987D01*
X24923078Y-73281000D01*
X25076922Y-73281000D01*
X25227809Y-73250987D01*
X25369942Y-73192113D01*
X25497859Y-73106642D01*
X25606642Y-72997859D01*
X25692113Y-72869942D01*
X25750987Y-72727809D01*
X25781000Y-72576922D01*
X25781000Y-72464391D01*
X31758439Y-66486953D01*
X31764484Y-66489457D01*
X31973331Y-66531000D01*
X32186269Y-66531000D01*
X32395116Y-66489457D01*
X32591845Y-66407969D01*
X32768897Y-66289667D01*
X32919467Y-66139097D01*
X33037769Y-65962045D01*
X33119257Y-65765316D01*
X33160800Y-65556469D01*
X33160800Y-65343531D01*
X33538800Y-65343531D01*
X33538800Y-65556469D01*
X33580343Y-65765316D01*
X33661831Y-65962045D01*
X33780133Y-66139097D01*
X33930703Y-66289667D01*
X34107755Y-66407969D01*
X34304484Y-66489457D01*
X34513331Y-66531000D01*
X34726269Y-66531000D01*
X34935116Y-66489457D01*
X35131845Y-66407969D01*
X35308897Y-66289667D01*
X35459467Y-66139097D01*
X35577769Y-65962045D01*
X35659257Y-65765316D01*
X35700800Y-65556469D01*
X35700800Y-65343531D01*
X35659257Y-65134684D01*
X35577769Y-64937955D01*
X35459467Y-64760903D01*
X35308897Y-64610333D01*
X35131845Y-64492031D01*
X34935116Y-64410543D01*
X34726269Y-64369000D01*
X34513331Y-64369000D01*
X34304484Y-64410543D01*
X34107755Y-64492031D01*
X33930703Y-64610333D01*
X33780133Y-64760903D01*
X33661831Y-64937955D01*
X33580343Y-65134684D01*
X33538800Y-65343531D01*
X33160800Y-65343531D01*
X33119257Y-65134684D01*
X33037769Y-64937955D01*
X32919467Y-64760903D01*
X32768897Y-64610333D01*
X32591845Y-64492031D01*
X32395116Y-64410543D01*
X32186269Y-64369000D01*
X31973331Y-64369000D01*
X31764484Y-64410543D01*
X31567755Y-64492031D01*
X31390703Y-64610333D01*
X31240133Y-64760903D01*
X31121831Y-64937955D01*
X31040343Y-65134684D01*
X30998800Y-65343531D01*
X30998800Y-65556469D01*
X31040343Y-65765316D01*
X31042847Y-65771361D01*
X30705994Y-66108214D01*
X30805734Y-65893758D01*
X30867983Y-65638260D01*
X30879190Y-65375527D01*
X30838925Y-65115656D01*
X30748735Y-64868634D01*
X30694837Y-64767797D01*
X30461069Y-64708336D01*
X29719405Y-65450000D01*
X29733548Y-65464143D01*
X29553943Y-65643748D01*
X29539800Y-65629605D01*
X28798136Y-66371269D01*
X28857597Y-66605037D01*
X29096042Y-66715934D01*
X29351540Y-66778183D01*
X29614273Y-66789390D01*
X29874144Y-66749125D01*
X30121166Y-66658935D01*
X30194437Y-66619771D01*
X25092175Y-71722034D01*
X25076922Y-71719000D01*
X24923078Y-71719000D01*
X24772191Y-71749013D01*
X24630058Y-71807887D01*
X24502141Y-71893358D01*
X24393358Y-72002141D01*
X24307887Y-72130058D01*
X24249013Y-72272191D01*
X24219000Y-72423078D01*
X23956000Y-72423078D01*
X23956000Y-66411384D01*
X24144484Y-66489457D01*
X24353331Y-66531000D01*
X24566269Y-66531000D01*
X24775116Y-66489457D01*
X24971845Y-66407969D01*
X25148897Y-66289667D01*
X25299467Y-66139097D01*
X25417769Y-65962045D01*
X25499257Y-65765316D01*
X25540800Y-65556469D01*
X25540800Y-65343531D01*
X25918800Y-65343531D01*
X25918800Y-65556469D01*
X25960343Y-65765316D01*
X26041831Y-65962045D01*
X26160133Y-66139097D01*
X26310703Y-66289667D01*
X26487755Y-66407969D01*
X26684484Y-66489457D01*
X26893331Y-66531000D01*
X27106269Y-66531000D01*
X27315116Y-66489457D01*
X27511845Y-66407969D01*
X27688897Y-66289667D01*
X27839467Y-66139097D01*
X27957769Y-65962045D01*
X28039257Y-65765316D01*
X28080800Y-65556469D01*
X28080800Y-65524473D01*
X28200410Y-65524473D01*
X28240675Y-65784344D01*
X28330865Y-66031366D01*
X28384763Y-66132203D01*
X28618531Y-66191664D01*
X29360195Y-65450000D01*
X28618531Y-64708336D01*
X28384763Y-64767797D01*
X28273866Y-65006242D01*
X28211617Y-65261740D01*
X28200410Y-65524473D01*
X28080800Y-65524473D01*
X28080800Y-65343531D01*
X28039257Y-65134684D01*
X27957769Y-64937955D01*
X27839467Y-64760903D01*
X27688897Y-64610333D01*
X27566771Y-64528731D01*
X28798136Y-64528731D01*
X29539800Y-65270395D01*
X30281464Y-64528731D01*
X30222003Y-64294963D01*
X29983558Y-64184066D01*
X29728060Y-64121817D01*
X29465327Y-64110610D01*
X29205456Y-64150875D01*
X28958434Y-64241065D01*
X28857597Y-64294963D01*
X28798136Y-64528731D01*
X27566771Y-64528731D01*
X27511845Y-64492031D01*
X27315116Y-64410543D01*
X27106269Y-64369000D01*
X26893331Y-64369000D01*
X26684484Y-64410543D01*
X26487755Y-64492031D01*
X26310703Y-64610333D01*
X26160133Y-64760903D01*
X26041831Y-64937955D01*
X25960343Y-65134684D01*
X25918800Y-65343531D01*
X25540800Y-65343531D01*
X25499257Y-65134684D01*
X25417769Y-64937955D01*
X25299467Y-64760903D01*
X25148897Y-64610333D01*
X24971845Y-64492031D01*
X24775116Y-64410543D01*
X24566269Y-64369000D01*
X24353331Y-64369000D01*
X24144484Y-64410543D01*
X23956000Y-64488616D01*
X23956000Y-63869854D01*
X23965413Y-63773852D01*
X23987528Y-63700603D01*
X24023452Y-63633039D01*
X24071811Y-63573746D01*
X24130767Y-63524973D01*
X24198074Y-63488580D01*
X24271167Y-63465955D01*
X24365877Y-63456000D01*
X42330146Y-63456000D01*
X42426148Y-63465413D01*
G04 #@! TA.AperFunction,Conductor*
D14*
G36*
X42426148Y-63465413D02*
G01*
X42499397Y-63487528D01*
X42566961Y-63523452D01*
X42626254Y-63571811D01*
X42675027Y-63630767D01*
X42711420Y-63698074D01*
X42734045Y-63771167D01*
X42744001Y-63865886D01*
X42744001Y-64488782D01*
X42555116Y-64410543D01*
X42346269Y-64369000D01*
X42133331Y-64369000D01*
X41924484Y-64410543D01*
X41727755Y-64492031D01*
X41550703Y-64610333D01*
X41400133Y-64760903D01*
X41281831Y-64937955D01*
X41200343Y-65134684D01*
X41158800Y-65343531D01*
X41158800Y-65556469D01*
X41200343Y-65765316D01*
X41202847Y-65771361D01*
X32259796Y-74714413D01*
X32240489Y-74730258D01*
X32177257Y-74807306D01*
X32152142Y-74854293D01*
X32130270Y-74895211D01*
X32106012Y-74975181D01*
X32106012Y-73759379D01*
X39378439Y-66486953D01*
X39384484Y-66489457D01*
X39593331Y-66531000D01*
X39806269Y-66531000D01*
X40015116Y-66489457D01*
X40211845Y-66407969D01*
X40388897Y-66289667D01*
X40539467Y-66139097D01*
X40657769Y-65962045D01*
X40739257Y-65765316D01*
X40780800Y-65556469D01*
X40780800Y-65343531D01*
X40739257Y-65134684D01*
X40657769Y-64937955D01*
X40539467Y-64760903D01*
X40388897Y-64610333D01*
X40211845Y-64492031D01*
X40015116Y-64410543D01*
X39806269Y-64369000D01*
X39593331Y-64369000D01*
X39384484Y-64410543D01*
X39187755Y-64492031D01*
X39010703Y-64610333D01*
X38860133Y-64760903D01*
X38741831Y-64937955D01*
X38660343Y-65134684D01*
X38618800Y-65343531D01*
X38618800Y-65556469D01*
X38660343Y-65765316D01*
X38662847Y-65771361D01*
X35452817Y-68981391D01*
X35450987Y-68972191D01*
X35392113Y-68830058D01*
X35306642Y-68702141D01*
X35197859Y-68593358D01*
X35069942Y-68507887D01*
X34927809Y-68449013D01*
X34884911Y-68440480D01*
X36838439Y-66486953D01*
X36844484Y-66489457D01*
X37053331Y-66531000D01*
X37266269Y-66531000D01*
X37475116Y-66489457D01*
X37671845Y-66407969D01*
X37848897Y-66289667D01*
X37999467Y-66139097D01*
X38117769Y-65962045D01*
X38199257Y-65765316D01*
X38240800Y-65556469D01*
X38240800Y-65343531D01*
X38199257Y-65134684D01*
X38117769Y-64937955D01*
X37999467Y-64760903D01*
X37848897Y-64610333D01*
X37671845Y-64492031D01*
X37475116Y-64410543D01*
X37266269Y-64369000D01*
X37053331Y-64369000D01*
X36844484Y-64410543D01*
X36647755Y-64492031D01*
X36470703Y-64610333D01*
X36320133Y-64760903D01*
X36201831Y-64937955D01*
X36120343Y-65134684D01*
X36078800Y-65343531D01*
X36078800Y-65556469D01*
X36120343Y-65765316D01*
X36122847Y-65771361D01*
X27259781Y-74634428D01*
X27240474Y-74650273D01*
X27177242Y-74727321D01*
X27165353Y-74749564D01*
X27130255Y-74815226D01*
X27101322Y-74910608D01*
X27091553Y-75009800D01*
X27094001Y-75034656D01*
X27094000Y-93801499D01*
X26993358Y-93902141D01*
X26907887Y-94030058D01*
X26849013Y-94172191D01*
X26819000Y-94323078D01*
X26819000Y-94476922D01*
X26849013Y-94627809D01*
X26907887Y-94769942D01*
X26993358Y-94897859D01*
X27102141Y-95006642D01*
X27230058Y-95092113D01*
X27372191Y-95150987D01*
X27523078Y-95181000D01*
X27676922Y-95181000D01*
X27827809Y-95150987D01*
X27969942Y-95092113D01*
X28097859Y-95006642D01*
X28100002Y-95004500D01*
X28102144Y-95006642D01*
X28230061Y-95092113D01*
X28372194Y-95150987D01*
X28523081Y-95181000D01*
X28676925Y-95181000D01*
X28827812Y-95150987D01*
X28969945Y-95092113D01*
X29097862Y-95006642D01*
X29100005Y-95004500D01*
X29102147Y-95006642D01*
X29230064Y-95092113D01*
X29372197Y-95150987D01*
X29523084Y-95181000D01*
X29676928Y-95181000D01*
X29827815Y-95150987D01*
X29969948Y-95092113D01*
X30097865Y-95006642D01*
X30100008Y-95004500D01*
X30102150Y-95006642D01*
X30230067Y-95092113D01*
X30372200Y-95150987D01*
X30523087Y-95181000D01*
X30676931Y-95181000D01*
X30827818Y-95150987D01*
X30969951Y-95092113D01*
X31097868Y-95006642D01*
X31100011Y-95004500D01*
X31102153Y-95006642D01*
X31230070Y-95092113D01*
X31372203Y-95150987D01*
X31523090Y-95181000D01*
X31676934Y-95181000D01*
X31827821Y-95150987D01*
X31969954Y-95092113D01*
X32097871Y-95006642D01*
X32100014Y-95004500D01*
X32102156Y-95006642D01*
X32230073Y-95092113D01*
X32372206Y-95150987D01*
X32523093Y-95181000D01*
X32676937Y-95181000D01*
X32827824Y-95150987D01*
X32969957Y-95092113D01*
X33097874Y-95006642D01*
X33206657Y-94897859D01*
X33292128Y-94769942D01*
X33351002Y-94627809D01*
X33381015Y-94476922D01*
X33381015Y-94323078D01*
X33351002Y-94172191D01*
X33292128Y-94030058D01*
X33206657Y-93902141D01*
X33106015Y-93801499D01*
X33106015Y-75299376D01*
X41918439Y-66486953D01*
X41924484Y-66489457D01*
X42133331Y-66531000D01*
X42346269Y-66531000D01*
X42555116Y-66489457D01*
X42744001Y-66411218D01*
X42744000Y-100830146D01*
X42734587Y-100926148D01*
X42712471Y-100999401D01*
X42676548Y-101066961D01*
X42628190Y-101126254D01*
X42569232Y-101175027D01*
X42501924Y-101211421D01*
X42428837Y-101234045D01*
X42334123Y-101244000D01*
X41775024Y-101244000D01*
X40901582Y-99846493D01*
X40889210Y-99823347D01*
X40867745Y-99797192D01*
X40847122Y-99770442D01*
X40842429Y-99766345D01*
X40838474Y-99761526D01*
X40812336Y-99740075D01*
X40786875Y-99717848D01*
X40781472Y-99714745D01*
X40776653Y-99710790D01*
X40746826Y-99694847D01*
X40717523Y-99678018D01*
X40711620Y-99676029D01*
X40706121Y-99673090D01*
X40673752Y-99663271D01*
X40641734Y-99652484D01*
X40635557Y-99651685D01*
X40629590Y-99649875D01*
X40595941Y-99646561D01*
X40562420Y-99642225D01*
X40536251Y-99644000D01*
X30063744Y-99644000D01*
X30037579Y-99642225D01*
X30004055Y-99646561D01*
X29970410Y-99649875D01*
X29964444Y-99651685D01*
X29958265Y-99652484D01*
X29926238Y-99663274D01*
X29893879Y-99673090D01*
X29888382Y-99676028D01*
X29882476Y-99678018D01*
X29853160Y-99694855D01*
X29823347Y-99710790D01*
X29818530Y-99714743D01*
X29813124Y-99717848D01*
X29787656Y-99740082D01*
X29761526Y-99761526D01*
X29757571Y-99766345D01*
X29752877Y-99770443D01*
X29732245Y-99797205D01*
X29710790Y-99823347D01*
X29698424Y-99846482D01*
X28824976Y-101244000D01*
X24369854Y-101244000D01*
X24273852Y-101234587D01*
X24200599Y-101212471D01*
X24133039Y-101176548D01*
X24073746Y-101128190D01*
X24024973Y-101069232D01*
X23988579Y-101001924D01*
X23965955Y-100928837D01*
X23956000Y-100834123D01*
X23956000Y-72423078D01*
X24219000Y-72423078D01*
X24219000Y-72576922D01*
X24249013Y-72727809D01*
X24307887Y-72869942D01*
X24393358Y-72997859D01*
X24502141Y-73106642D01*
X24630058Y-73192113D01*
X24772191Y-73250987D01*
X24923078Y-73281000D01*
X25076922Y-73281000D01*
X25227809Y-73250987D01*
X25369942Y-73192113D01*
X25497859Y-73106642D01*
X25606642Y-72997859D01*
X25692113Y-72869942D01*
X25750987Y-72727809D01*
X25781000Y-72576922D01*
X25781000Y-72464391D01*
X31758439Y-66486953D01*
X31764484Y-66489457D01*
X31973331Y-66531000D01*
X32186269Y-66531000D01*
X32395116Y-66489457D01*
X32591845Y-66407969D01*
X32768897Y-66289667D01*
X32919467Y-66139097D01*
X33037769Y-65962045D01*
X33119257Y-65765316D01*
X33160800Y-65556469D01*
X33160800Y-65343531D01*
X33538800Y-65343531D01*
X33538800Y-65556469D01*
X33580343Y-65765316D01*
X33661831Y-65962045D01*
X33780133Y-66139097D01*
X33930703Y-66289667D01*
X34107755Y-66407969D01*
X34304484Y-66489457D01*
X34513331Y-66531000D01*
X34726269Y-66531000D01*
X34935116Y-66489457D01*
X35131845Y-66407969D01*
X35308897Y-66289667D01*
X35459467Y-66139097D01*
X35577769Y-65962045D01*
X35659257Y-65765316D01*
X35700800Y-65556469D01*
X35700800Y-65343531D01*
X35659257Y-65134684D01*
X35577769Y-64937955D01*
X35459467Y-64760903D01*
X35308897Y-64610333D01*
X35131845Y-64492031D01*
X34935116Y-64410543D01*
X34726269Y-64369000D01*
X34513331Y-64369000D01*
X34304484Y-64410543D01*
X34107755Y-64492031D01*
X33930703Y-64610333D01*
X33780133Y-64760903D01*
X33661831Y-64937955D01*
X33580343Y-65134684D01*
X33538800Y-65343531D01*
X33160800Y-65343531D01*
X33119257Y-65134684D01*
X33037769Y-64937955D01*
X32919467Y-64760903D01*
X32768897Y-64610333D01*
X32591845Y-64492031D01*
X32395116Y-64410543D01*
X32186269Y-64369000D01*
X31973331Y-64369000D01*
X31764484Y-64410543D01*
X31567755Y-64492031D01*
X31390703Y-64610333D01*
X31240133Y-64760903D01*
X31121831Y-64937955D01*
X31040343Y-65134684D01*
X30998800Y-65343531D01*
X30998800Y-65556469D01*
X31040343Y-65765316D01*
X31042847Y-65771361D01*
X30705994Y-66108214D01*
X30805734Y-65893758D01*
X30867983Y-65638260D01*
X30879190Y-65375527D01*
X30838925Y-65115656D01*
X30748735Y-64868634D01*
X30694837Y-64767797D01*
X30461069Y-64708336D01*
X29719405Y-65450000D01*
X29733548Y-65464143D01*
X29553943Y-65643748D01*
X29539800Y-65629605D01*
X28798136Y-66371269D01*
X28857597Y-66605037D01*
X29096042Y-66715934D01*
X29351540Y-66778183D01*
X29614273Y-66789390D01*
X29874144Y-66749125D01*
X30121166Y-66658935D01*
X30194437Y-66619771D01*
X25092175Y-71722034D01*
X25076922Y-71719000D01*
X24923078Y-71719000D01*
X24772191Y-71749013D01*
X24630058Y-71807887D01*
X24502141Y-71893358D01*
X24393358Y-72002141D01*
X24307887Y-72130058D01*
X24249013Y-72272191D01*
X24219000Y-72423078D01*
X23956000Y-72423078D01*
X23956000Y-66411384D01*
X24144484Y-66489457D01*
X24353331Y-66531000D01*
X24566269Y-66531000D01*
X24775116Y-66489457D01*
X24971845Y-66407969D01*
X25148897Y-66289667D01*
X25299467Y-66139097D01*
X25417769Y-65962045D01*
X25499257Y-65765316D01*
X25540800Y-65556469D01*
X25540800Y-65343531D01*
X25918800Y-65343531D01*
X25918800Y-65556469D01*
X25960343Y-65765316D01*
X26041831Y-65962045D01*
X26160133Y-66139097D01*
X26310703Y-66289667D01*
X26487755Y-66407969D01*
X26684484Y-66489457D01*
X26893331Y-66531000D01*
X27106269Y-66531000D01*
X27315116Y-66489457D01*
X27511845Y-66407969D01*
X27688897Y-66289667D01*
X27839467Y-66139097D01*
X27957769Y-65962045D01*
X28039257Y-65765316D01*
X28080800Y-65556469D01*
X28080800Y-65524473D01*
X28200410Y-65524473D01*
X28240675Y-65784344D01*
X28330865Y-66031366D01*
X28384763Y-66132203D01*
X28618531Y-66191664D01*
X29360195Y-65450000D01*
X28618531Y-64708336D01*
X28384763Y-64767797D01*
X28273866Y-65006242D01*
X28211617Y-65261740D01*
X28200410Y-65524473D01*
X28080800Y-65524473D01*
X28080800Y-65343531D01*
X28039257Y-65134684D01*
X27957769Y-64937955D01*
X27839467Y-64760903D01*
X27688897Y-64610333D01*
X27566771Y-64528731D01*
X28798136Y-64528731D01*
X29539800Y-65270395D01*
X30281464Y-64528731D01*
X30222003Y-64294963D01*
X29983558Y-64184066D01*
X29728060Y-64121817D01*
X29465327Y-64110610D01*
X29205456Y-64150875D01*
X28958434Y-64241065D01*
X28857597Y-64294963D01*
X28798136Y-64528731D01*
X27566771Y-64528731D01*
X27511845Y-64492031D01*
X27315116Y-64410543D01*
X27106269Y-64369000D01*
X26893331Y-64369000D01*
X26684484Y-64410543D01*
X26487755Y-64492031D01*
X26310703Y-64610333D01*
X26160133Y-64760903D01*
X26041831Y-64937955D01*
X25960343Y-65134684D01*
X25918800Y-65343531D01*
X25540800Y-65343531D01*
X25499257Y-65134684D01*
X25417769Y-64937955D01*
X25299467Y-64760903D01*
X25148897Y-64610333D01*
X24971845Y-64492031D01*
X24775116Y-64410543D01*
X24566269Y-64369000D01*
X24353331Y-64369000D01*
X24144484Y-64410543D01*
X23956000Y-64488616D01*
X23956000Y-63869854D01*
X23965413Y-63773852D01*
X23987528Y-63700603D01*
X24023452Y-63633039D01*
X24071811Y-63573746D01*
X24130767Y-63524973D01*
X24198074Y-63488580D01*
X24271167Y-63465955D01*
X24365877Y-63456000D01*
X42330146Y-63456000D01*
X42426148Y-63465413D01*
G37*
G04 #@! TD.AperFunction*
M02*
