G04 #@! TF.GenerationSoftware,KiCad,Pcbnew,(5.1.9)-1*
G04 #@! TF.CreationDate,2021-02-07T21:53:58-06:00*
G04 #@! TF.ProjectId,epaper-102,65706170-6572-42d3-9130-322e6b696361,rev?*
G04 #@! TF.SameCoordinates,Original*
G04 #@! TF.FileFunction,Paste,Bot*
G04 #@! TF.FilePolarity,Positive*
%FSLAX46Y46*%
G04 Gerber Fmt 4.6, Leading zero omitted, Abs format (unit mm)*
G04 Created by KiCad (PCBNEW (5.1.9)-1) date 2021-02-07 21:53:58*
%MOMM*%
%LPD*%
G01*
G04 APERTURE LIST*
%ADD10R,0.300000X1.300000*%
%ADD11R,1.000000X1.500000*%
%ADD12R,0.900000X1.200000*%
G04 APERTURE END LIST*
G36*
G01*
X27230000Y-85780000D02*
X27570000Y-85780000D01*
G75*
G02*
X27710000Y-85920000I0J-140000D01*
G01*
X27710000Y-86200000D01*
G75*
G02*
X27570000Y-86340000I-140000J0D01*
G01*
X27230000Y-86340000D01*
G75*
G02*
X27090000Y-86200000I0J140000D01*
G01*
X27090000Y-85920000D01*
G75*
G02*
X27230000Y-85780000I140000J0D01*
G01*
G37*
G36*
G01*
X27230000Y-84820000D02*
X27570000Y-84820000D01*
G75*
G02*
X27710000Y-84960000I0J-140000D01*
G01*
X27710000Y-85240000D01*
G75*
G02*
X27570000Y-85380000I-140000J0D01*
G01*
X27230000Y-85380000D01*
G75*
G02*
X27090000Y-85240000I0J140000D01*
G01*
X27090000Y-84960000D01*
G75*
G02*
X27230000Y-84820000I140000J0D01*
G01*
G37*
G36*
G01*
X26430000Y-83320000D02*
X26770000Y-83320000D01*
G75*
G02*
X26910000Y-83460000I0J-140000D01*
G01*
X26910000Y-83740000D01*
G75*
G02*
X26770000Y-83880000I-140000J0D01*
G01*
X26430000Y-83880000D01*
G75*
G02*
X26290000Y-83740000I0J140000D01*
G01*
X26290000Y-83460000D01*
G75*
G02*
X26430000Y-83320000I140000J0D01*
G01*
G37*
G36*
G01*
X26430000Y-82360000D02*
X26770000Y-82360000D01*
G75*
G02*
X26910000Y-82500000I0J-140000D01*
G01*
X26910000Y-82780000D01*
G75*
G02*
X26770000Y-82920000I-140000J0D01*
G01*
X26430000Y-82920000D01*
G75*
G02*
X26290000Y-82780000I0J140000D01*
G01*
X26290000Y-82500000D01*
G75*
G02*
X26430000Y-82360000I140000J0D01*
G01*
G37*
D10*
X26100000Y-90450000D03*
X26600000Y-90450000D03*
X27100000Y-90450000D03*
X27600000Y-90450000D03*
X28100000Y-90450000D03*
X28600000Y-90450000D03*
X29100000Y-90450000D03*
X29600000Y-90450000D03*
X30100000Y-90450000D03*
X30600000Y-90450000D03*
X31100000Y-90450000D03*
X31600000Y-90450000D03*
X32100000Y-90450000D03*
X32600000Y-90450000D03*
X33100000Y-90450000D03*
X33600000Y-90450000D03*
X34100000Y-90450000D03*
X34600000Y-90450000D03*
X35100000Y-90450000D03*
X35600000Y-90450000D03*
X36100000Y-90450000D03*
X36600000Y-90450000D03*
X37100000Y-90450000D03*
X37600000Y-90450000D03*
X38100000Y-90450000D03*
X38600000Y-90450000D03*
X39100000Y-90450000D03*
X39600000Y-90450000D03*
X40100000Y-90450000D03*
X40600000Y-90450000D03*
D11*
X42100000Y-93650000D03*
X24600000Y-93650000D03*
D12*
X35000000Y-72550000D03*
X31700000Y-72550000D03*
G36*
G01*
X41527500Y-85805000D02*
X41872500Y-85805000D01*
G75*
G02*
X42020000Y-85952500I0J-147500D01*
G01*
X42020000Y-86247500D01*
G75*
G02*
X41872500Y-86395000I-147500J0D01*
G01*
X41527500Y-86395000D01*
G75*
G02*
X41380000Y-86247500I0J147500D01*
G01*
X41380000Y-85952500D01*
G75*
G02*
X41527500Y-85805000I147500J0D01*
G01*
G37*
G36*
G01*
X41527500Y-84835000D02*
X41872500Y-84835000D01*
G75*
G02*
X42020000Y-84982500I0J-147500D01*
G01*
X42020000Y-85277500D01*
G75*
G02*
X41872500Y-85425000I-147500J0D01*
G01*
X41527500Y-85425000D01*
G75*
G02*
X41380000Y-85277500I0J147500D01*
G01*
X41380000Y-84982500D01*
G75*
G02*
X41527500Y-84835000I147500J0D01*
G01*
G37*
G36*
G01*
X41343750Y-81062500D02*
X41856250Y-81062500D01*
G75*
G02*
X42075000Y-81281250I0J-218750D01*
G01*
X42075000Y-81718750D01*
G75*
G02*
X41856250Y-81937500I-218750J0D01*
G01*
X41343750Y-81937500D01*
G75*
G02*
X41125000Y-81718750I0J218750D01*
G01*
X41125000Y-81281250D01*
G75*
G02*
X41343750Y-81062500I218750J0D01*
G01*
G37*
G36*
G01*
X41343750Y-79487500D02*
X41856250Y-79487500D01*
G75*
G02*
X42075000Y-79706250I0J-218750D01*
G01*
X42075000Y-80143750D01*
G75*
G02*
X41856250Y-80362500I-218750J0D01*
G01*
X41343750Y-80362500D01*
G75*
G02*
X41125000Y-80143750I0J218750D01*
G01*
X41125000Y-79706250D01*
G75*
G02*
X41343750Y-79487500I218750J0D01*
G01*
G37*
G36*
G01*
X39627500Y-85805000D02*
X39972500Y-85805000D01*
G75*
G02*
X40120000Y-85952500I0J-147500D01*
G01*
X40120000Y-86247500D01*
G75*
G02*
X39972500Y-86395000I-147500J0D01*
G01*
X39627500Y-86395000D01*
G75*
G02*
X39480000Y-86247500I0J147500D01*
G01*
X39480000Y-85952500D01*
G75*
G02*
X39627500Y-85805000I147500J0D01*
G01*
G37*
G36*
G01*
X39627500Y-84835000D02*
X39972500Y-84835000D01*
G75*
G02*
X40120000Y-84982500I0J-147500D01*
G01*
X40120000Y-85277500D01*
G75*
G02*
X39972500Y-85425000I-147500J0D01*
G01*
X39627500Y-85425000D01*
G75*
G02*
X39480000Y-85277500I0J147500D01*
G01*
X39480000Y-84982500D01*
G75*
G02*
X39627500Y-84835000I147500J0D01*
G01*
G37*
G36*
G01*
X39756250Y-80362500D02*
X39243750Y-80362500D01*
G75*
G02*
X39025000Y-80143750I0J218750D01*
G01*
X39025000Y-79706250D01*
G75*
G02*
X39243750Y-79487500I218750J0D01*
G01*
X39756250Y-79487500D01*
G75*
G02*
X39975000Y-79706250I0J-218750D01*
G01*
X39975000Y-80143750D01*
G75*
G02*
X39756250Y-80362500I-218750J0D01*
G01*
G37*
G36*
G01*
X39756250Y-81937500D02*
X39243750Y-81937500D01*
G75*
G02*
X39025000Y-81718750I0J218750D01*
G01*
X39025000Y-81281250D01*
G75*
G02*
X39243750Y-81062500I218750J0D01*
G01*
X39756250Y-81062500D01*
G75*
G02*
X39975000Y-81281250I0J-218750D01*
G01*
X39975000Y-81718750D01*
G75*
G02*
X39756250Y-81937500I-218750J0D01*
G01*
G37*
G36*
G01*
X36247500Y-80855000D02*
X36592500Y-80855000D01*
G75*
G02*
X36740000Y-81002500I0J-147500D01*
G01*
X36740000Y-81297500D01*
G75*
G02*
X36592500Y-81445000I-147500J0D01*
G01*
X36247500Y-81445000D01*
G75*
G02*
X36100000Y-81297500I0J147500D01*
G01*
X36100000Y-81002500D01*
G75*
G02*
X36247500Y-80855000I147500J0D01*
G01*
G37*
G36*
G01*
X36247500Y-79885000D02*
X36592500Y-79885000D01*
G75*
G02*
X36740000Y-80032500I0J-147500D01*
G01*
X36740000Y-80327500D01*
G75*
G02*
X36592500Y-80475000I-147500J0D01*
G01*
X36247500Y-80475000D01*
G75*
G02*
X36100000Y-80327500I0J147500D01*
G01*
X36100000Y-80032500D01*
G75*
G02*
X36247500Y-79885000I147500J0D01*
G01*
G37*
G36*
G01*
X36147500Y-85755000D02*
X36492500Y-85755000D01*
G75*
G02*
X36640000Y-85902500I0J-147500D01*
G01*
X36640000Y-86197500D01*
G75*
G02*
X36492500Y-86345000I-147500J0D01*
G01*
X36147500Y-86345000D01*
G75*
G02*
X36000000Y-86197500I0J147500D01*
G01*
X36000000Y-85902500D01*
G75*
G02*
X36147500Y-85755000I147500J0D01*
G01*
G37*
G36*
G01*
X36147500Y-84785000D02*
X36492500Y-84785000D01*
G75*
G02*
X36640000Y-84932500I0J-147500D01*
G01*
X36640000Y-85227500D01*
G75*
G02*
X36492500Y-85375000I-147500J0D01*
G01*
X36147500Y-85375000D01*
G75*
G02*
X36000000Y-85227500I0J147500D01*
G01*
X36000000Y-84932500D01*
G75*
G02*
X36147500Y-84785000I147500J0D01*
G01*
G37*
G36*
G01*
X33707500Y-80855000D02*
X34052500Y-80855000D01*
G75*
G02*
X34200000Y-81002500I0J-147500D01*
G01*
X34200000Y-81297500D01*
G75*
G02*
X34052500Y-81445000I-147500J0D01*
G01*
X33707500Y-81445000D01*
G75*
G02*
X33560000Y-81297500I0J147500D01*
G01*
X33560000Y-81002500D01*
G75*
G02*
X33707500Y-80855000I147500J0D01*
G01*
G37*
G36*
G01*
X33707500Y-79885000D02*
X34052500Y-79885000D01*
G75*
G02*
X34200000Y-80032500I0J-147500D01*
G01*
X34200000Y-80327500D01*
G75*
G02*
X34052500Y-80475000I-147500J0D01*
G01*
X33707500Y-80475000D01*
G75*
G02*
X33560000Y-80327500I0J147500D01*
G01*
X33560000Y-80032500D01*
G75*
G02*
X33707500Y-79885000I147500J0D01*
G01*
G37*
G36*
G01*
X33607500Y-85755000D02*
X33952500Y-85755000D01*
G75*
G02*
X34100000Y-85902500I0J-147500D01*
G01*
X34100000Y-86197500D01*
G75*
G02*
X33952500Y-86345000I-147500J0D01*
G01*
X33607500Y-86345000D01*
G75*
G02*
X33460000Y-86197500I0J147500D01*
G01*
X33460000Y-85902500D01*
G75*
G02*
X33607500Y-85755000I147500J0D01*
G01*
G37*
G36*
G01*
X33607500Y-84785000D02*
X33952500Y-84785000D01*
G75*
G02*
X34100000Y-84932500I0J-147500D01*
G01*
X34100000Y-85227500D01*
G75*
G02*
X33952500Y-85375000I-147500J0D01*
G01*
X33607500Y-85375000D01*
G75*
G02*
X33460000Y-85227500I0J147500D01*
G01*
X33460000Y-84932500D01*
G75*
G02*
X33607500Y-84785000I147500J0D01*
G01*
G37*
G36*
G01*
X31067500Y-85775000D02*
X31412500Y-85775000D01*
G75*
G02*
X31560000Y-85922500I0J-147500D01*
G01*
X31560000Y-86217500D01*
G75*
G02*
X31412500Y-86365000I-147500J0D01*
G01*
X31067500Y-86365000D01*
G75*
G02*
X30920000Y-86217500I0J147500D01*
G01*
X30920000Y-85922500D01*
G75*
G02*
X31067500Y-85775000I147500J0D01*
G01*
G37*
G36*
G01*
X31067500Y-84805000D02*
X31412500Y-84805000D01*
G75*
G02*
X31560000Y-84952500I0J-147500D01*
G01*
X31560000Y-85247500D01*
G75*
G02*
X31412500Y-85395000I-147500J0D01*
G01*
X31067500Y-85395000D01*
G75*
G02*
X30920000Y-85247500I0J147500D01*
G01*
X30920000Y-84952500D01*
G75*
G02*
X31067500Y-84805000I147500J0D01*
G01*
G37*
G36*
G01*
X31167500Y-80875000D02*
X31512500Y-80875000D01*
G75*
G02*
X31660000Y-81022500I0J-147500D01*
G01*
X31660000Y-81317500D01*
G75*
G02*
X31512500Y-81465000I-147500J0D01*
G01*
X31167500Y-81465000D01*
G75*
G02*
X31020000Y-81317500I0J147500D01*
G01*
X31020000Y-81022500D01*
G75*
G02*
X31167500Y-80875000I147500J0D01*
G01*
G37*
G36*
G01*
X31167500Y-79905000D02*
X31512500Y-79905000D01*
G75*
G02*
X31660000Y-80052500I0J-147500D01*
G01*
X31660000Y-80347500D01*
G75*
G02*
X31512500Y-80495000I-147500J0D01*
G01*
X31167500Y-80495000D01*
G75*
G02*
X31020000Y-80347500I0J147500D01*
G01*
X31020000Y-80052500D01*
G75*
G02*
X31167500Y-79905000I147500J0D01*
G01*
G37*
G36*
G01*
X28627500Y-80855000D02*
X28972500Y-80855000D01*
G75*
G02*
X29120000Y-81002500I0J-147500D01*
G01*
X29120000Y-81297500D01*
G75*
G02*
X28972500Y-81445000I-147500J0D01*
G01*
X28627500Y-81445000D01*
G75*
G02*
X28480000Y-81297500I0J147500D01*
G01*
X28480000Y-81002500D01*
G75*
G02*
X28627500Y-80855000I147500J0D01*
G01*
G37*
G36*
G01*
X28627500Y-79885000D02*
X28972500Y-79885000D01*
G75*
G02*
X29120000Y-80032500I0J-147500D01*
G01*
X29120000Y-80327500D01*
G75*
G02*
X28972500Y-80475000I-147500J0D01*
G01*
X28627500Y-80475000D01*
G75*
G02*
X28480000Y-80327500I0J147500D01*
G01*
X28480000Y-80032500D01*
G75*
G02*
X28627500Y-79885000I147500J0D01*
G01*
G37*
G36*
G01*
X26027500Y-80805000D02*
X26372500Y-80805000D01*
G75*
G02*
X26520000Y-80952500I0J-147500D01*
G01*
X26520000Y-81247500D01*
G75*
G02*
X26372500Y-81395000I-147500J0D01*
G01*
X26027500Y-81395000D01*
G75*
G02*
X25880000Y-81247500I0J147500D01*
G01*
X25880000Y-80952500D01*
G75*
G02*
X26027500Y-80805000I147500J0D01*
G01*
G37*
G36*
G01*
X26027500Y-79835000D02*
X26372500Y-79835000D01*
G75*
G02*
X26520000Y-79982500I0J-147500D01*
G01*
X26520000Y-80277500D01*
G75*
G02*
X26372500Y-80425000I-147500J0D01*
G01*
X26027500Y-80425000D01*
G75*
G02*
X25880000Y-80277500I0J147500D01*
G01*
X25880000Y-79982500D01*
G75*
G02*
X26027500Y-79835000I147500J0D01*
G01*
G37*
G36*
G01*
X28527500Y-85775000D02*
X28872500Y-85775000D01*
G75*
G02*
X29020000Y-85922500I0J-147500D01*
G01*
X29020000Y-86217500D01*
G75*
G02*
X28872500Y-86365000I-147500J0D01*
G01*
X28527500Y-86365000D01*
G75*
G02*
X28380000Y-86217500I0J147500D01*
G01*
X28380000Y-85922500D01*
G75*
G02*
X28527500Y-85775000I147500J0D01*
G01*
G37*
G36*
G01*
X28527500Y-84805000D02*
X28872500Y-84805000D01*
G75*
G02*
X29020000Y-84952500I0J-147500D01*
G01*
X29020000Y-85247500D01*
G75*
G02*
X28872500Y-85395000I-147500J0D01*
G01*
X28527500Y-85395000D01*
G75*
G02*
X28380000Y-85247500I0J147500D01*
G01*
X28380000Y-84952500D01*
G75*
G02*
X28527500Y-84805000I147500J0D01*
G01*
G37*
G36*
G01*
X25987500Y-85755000D02*
X26332500Y-85755000D01*
G75*
G02*
X26480000Y-85902500I0J-147500D01*
G01*
X26480000Y-86197500D01*
G75*
G02*
X26332500Y-86345000I-147500J0D01*
G01*
X25987500Y-86345000D01*
G75*
G02*
X25840000Y-86197500I0J147500D01*
G01*
X25840000Y-85902500D01*
G75*
G02*
X25987500Y-85755000I147500J0D01*
G01*
G37*
G36*
G01*
X25987500Y-84785000D02*
X26332500Y-84785000D01*
G75*
G02*
X26480000Y-84932500I0J-147500D01*
G01*
X26480000Y-85227500D01*
G75*
G02*
X26332500Y-85375000I-147500J0D01*
G01*
X25987500Y-85375000D01*
G75*
G02*
X25840000Y-85227500I0J147500D01*
G01*
X25840000Y-84932500D01*
G75*
G02*
X25987500Y-84785000I147500J0D01*
G01*
G37*
G36*
G01*
X24727500Y-83305000D02*
X25072500Y-83305000D01*
G75*
G02*
X25220000Y-83452500I0J-147500D01*
G01*
X25220000Y-83747500D01*
G75*
G02*
X25072500Y-83895000I-147500J0D01*
G01*
X24727500Y-83895000D01*
G75*
G02*
X24580000Y-83747500I0J147500D01*
G01*
X24580000Y-83452500D01*
G75*
G02*
X24727500Y-83305000I147500J0D01*
G01*
G37*
G36*
G01*
X24727500Y-82335000D02*
X25072500Y-82335000D01*
G75*
G02*
X25220000Y-82482500I0J-147500D01*
G01*
X25220000Y-82777500D01*
G75*
G02*
X25072500Y-82925000I-147500J0D01*
G01*
X24727500Y-82925000D01*
G75*
G02*
X24580000Y-82777500I0J147500D01*
G01*
X24580000Y-82482500D01*
G75*
G02*
X24727500Y-82335000I147500J0D01*
G01*
G37*
M02*
