G04 #@! TF.GenerationSoftware,KiCad,Pcbnew,(5.1.9)-1*
G04 #@! TF.CreationDate,2021-02-07T21:53:58-06:00*
G04 #@! TF.ProjectId,epaper-102,65706170-6572-42d3-9130-322e6b696361,rev?*
G04 #@! TF.SameCoordinates,Original*
G04 #@! TF.FileFunction,Legend,Bot*
G04 #@! TF.FilePolarity,Positive*
%FSLAX46Y46*%
G04 Gerber Fmt 4.6, Leading zero omitted, Abs format (unit mm)*
G04 Created by KiCad (PCBNEW (5.1.9)-1) date 2021-02-07 21:53:58*
%MOMM*%
%LPD*%
G01*
G04 APERTURE LIST*
%ADD10C,0.153000*%
%ADD11C,0.120000*%
%ADD12C,0.150000*%
G04 APERTURE END LIST*
D10*
X31109523Y-67338095D02*
X31604761Y-67338095D01*
X31338095Y-67033333D01*
X31452380Y-67033333D01*
X31528571Y-66995238D01*
X31566666Y-66957142D01*
X31604761Y-66880952D01*
X31604761Y-66690476D01*
X31566666Y-66614285D01*
X31528571Y-66576190D01*
X31452380Y-66538095D01*
X31223809Y-66538095D01*
X31147619Y-66576190D01*
X31109523Y-66614285D01*
X31833333Y-67338095D02*
X32100000Y-66538095D01*
X32366666Y-67338095D01*
X32557142Y-67338095D02*
X33052380Y-67338095D01*
X32785714Y-67033333D01*
X32899999Y-67033333D01*
X32976190Y-66995238D01*
X33014285Y-66957142D01*
X33052380Y-66880952D01*
X33052380Y-66690476D01*
X33014285Y-66614285D01*
X32976190Y-66576190D01*
X32899999Y-66538095D01*
X32671428Y-66538095D01*
X32595238Y-66576190D01*
X32557142Y-66614285D01*
X28890476Y-64400000D02*
X28814285Y-64438095D01*
X28700000Y-64438095D01*
X28585714Y-64400000D01*
X28509523Y-64323809D01*
X28471428Y-64247619D01*
X28433333Y-64095238D01*
X28433333Y-63980952D01*
X28471428Y-63828571D01*
X28509523Y-63752380D01*
X28585714Y-63676190D01*
X28700000Y-63638095D01*
X28776190Y-63638095D01*
X28890476Y-63676190D01*
X28928571Y-63714285D01*
X28928571Y-63980952D01*
X28776190Y-63980952D01*
X29271428Y-63638095D02*
X29271428Y-64438095D01*
X29728571Y-63638095D01*
X29728571Y-64438095D01*
X30109523Y-63638095D02*
X30109523Y-64438095D01*
X30300000Y-64438095D01*
X30414285Y-64400000D01*
X30490476Y-64323809D01*
X30528571Y-64247619D01*
X30566666Y-64095238D01*
X30566666Y-63980952D01*
X30528571Y-63828571D01*
X30490476Y-63752380D01*
X30414285Y-63676190D01*
X30300000Y-63638095D01*
X30109523Y-63638095D01*
X36380952Y-66538095D02*
X36380952Y-67338095D01*
X36571428Y-67338095D01*
X36685714Y-67300000D01*
X36761904Y-67223809D01*
X36800000Y-67147619D01*
X36838095Y-66995238D01*
X36838095Y-66880952D01*
X36800000Y-66728571D01*
X36761904Y-66652380D01*
X36685714Y-66576190D01*
X36571428Y-66538095D01*
X36380952Y-66538095D01*
X37180952Y-66538095D02*
X37180952Y-67338095D01*
X37561904Y-66538095D02*
X37561904Y-67338095D01*
X38019047Y-66538095D01*
X38019047Y-67338095D01*
X34223809Y-63714285D02*
X34185714Y-63676190D01*
X34071428Y-63638095D01*
X33995238Y-63638095D01*
X33880952Y-63676190D01*
X33804761Y-63752380D01*
X33766666Y-63828571D01*
X33728571Y-63980952D01*
X33728571Y-64095238D01*
X33766666Y-64247619D01*
X33804761Y-64323809D01*
X33880952Y-64400000D01*
X33995238Y-64438095D01*
X34071428Y-64438095D01*
X34185714Y-64400000D01*
X34223809Y-64361904D01*
X34947619Y-63638095D02*
X34566666Y-63638095D01*
X34566666Y-64438095D01*
X35214285Y-63638095D02*
X35214285Y-64438095D01*
X35671428Y-63638095D02*
X35328571Y-64095238D01*
X35671428Y-64438095D02*
X35214285Y-63980952D01*
X24566666Y-63714285D02*
X24528571Y-63676190D01*
X24414285Y-63638095D01*
X24338095Y-63638095D01*
X24223809Y-63676190D01*
X24147619Y-63752380D01*
X24109523Y-63828571D01*
X24071428Y-63980952D01*
X24071428Y-64095238D01*
X24109523Y-64247619D01*
X24147619Y-64323809D01*
X24223809Y-64400000D01*
X24338095Y-64438095D01*
X24414285Y-64438095D01*
X24528571Y-64400000D01*
X24566666Y-64361904D01*
X24871428Y-63676190D02*
X24985714Y-63638095D01*
X25176190Y-63638095D01*
X25252380Y-63676190D01*
X25290476Y-63714285D01*
X25328571Y-63790476D01*
X25328571Y-63866666D01*
X25290476Y-63942857D01*
X25252380Y-63980952D01*
X25176190Y-64019047D01*
X25023809Y-64057142D01*
X24947619Y-64095238D01*
X24909523Y-64133333D01*
X24871428Y-64209523D01*
X24871428Y-64285714D01*
X24909523Y-64361904D01*
X24947619Y-64400000D01*
X25023809Y-64438095D01*
X25214285Y-64438095D01*
X25328571Y-64400000D01*
X26390476Y-66538095D02*
X26390476Y-67338095D01*
X26580952Y-67338095D01*
X26695238Y-67300000D01*
X26771428Y-67223809D01*
X26809523Y-67147619D01*
X26847619Y-66995238D01*
X26847619Y-66880952D01*
X26809523Y-66728571D01*
X26771428Y-66652380D01*
X26695238Y-66576190D01*
X26580952Y-66538095D01*
X26390476Y-66538095D01*
X27647619Y-66614285D02*
X27609523Y-66576190D01*
X27495238Y-66538095D01*
X27419047Y-66538095D01*
X27304761Y-66576190D01*
X27228571Y-66652380D01*
X27190476Y-66728571D01*
X27152380Y-66880952D01*
X27152380Y-66995238D01*
X27190476Y-67147619D01*
X27228571Y-67223809D01*
X27304761Y-67300000D01*
X27419047Y-67338095D01*
X27495238Y-67338095D01*
X27609523Y-67300000D01*
X27647619Y-67261904D01*
X39210904Y-63638095D02*
X38944238Y-64019047D01*
X38753761Y-63638095D02*
X38753761Y-64438095D01*
X39058523Y-64438095D01*
X39134714Y-64400000D01*
X39172809Y-64361904D01*
X39210904Y-64285714D01*
X39210904Y-64171428D01*
X39172809Y-64095238D01*
X39134714Y-64057142D01*
X39058523Y-64019047D01*
X38753761Y-64019047D01*
X39515666Y-63676190D02*
X39629952Y-63638095D01*
X39820428Y-63638095D01*
X39896619Y-63676190D01*
X39934714Y-63714285D01*
X39972809Y-63790476D01*
X39972809Y-63866666D01*
X39934714Y-63942857D01*
X39896619Y-63980952D01*
X39820428Y-64019047D01*
X39668047Y-64057142D01*
X39591857Y-64095238D01*
X39553761Y-64133333D01*
X39515666Y-64209523D01*
X39515666Y-64285714D01*
X39553761Y-64361904D01*
X39591857Y-64400000D01*
X39668047Y-64438095D01*
X39858523Y-64438095D01*
X39972809Y-64400000D01*
X40201380Y-64438095D02*
X40658523Y-64438095D01*
X40429952Y-63638095D02*
X40429952Y-64438095D01*
X41014333Y-66976142D02*
X41128619Y-66938047D01*
X41166714Y-66899952D01*
X41204809Y-66823761D01*
X41204809Y-66709476D01*
X41166714Y-66633285D01*
X41128619Y-66595190D01*
X41052428Y-66557095D01*
X40747666Y-66557095D01*
X40747666Y-67357095D01*
X41014333Y-67357095D01*
X41090523Y-67319000D01*
X41128619Y-67280904D01*
X41166714Y-67204714D01*
X41166714Y-67128523D01*
X41128619Y-67052333D01*
X41090523Y-67014238D01*
X41014333Y-66976142D01*
X40747666Y-66976142D01*
X41509571Y-66595190D02*
X41623857Y-66557095D01*
X41814333Y-66557095D01*
X41890523Y-66595190D01*
X41928619Y-66633285D01*
X41966714Y-66709476D01*
X41966714Y-66785666D01*
X41928619Y-66861857D01*
X41890523Y-66899952D01*
X41814333Y-66938047D01*
X41661952Y-66976142D01*
X41585761Y-67014238D01*
X41547666Y-67052333D01*
X41509571Y-67128523D01*
X41509571Y-67204714D01*
X41547666Y-67280904D01*
X41585761Y-67319000D01*
X41661952Y-67357095D01*
X41852428Y-67357095D01*
X41966714Y-67319000D01*
X42461952Y-66938047D02*
X42461952Y-66557095D01*
X42195285Y-67357095D02*
X42461952Y-66938047D01*
X42728619Y-67357095D01*
D11*
X27040000Y-85472164D02*
X27040000Y-85687836D01*
X27760000Y-85472164D02*
X27760000Y-85687836D01*
X26240000Y-83012164D02*
X26240000Y-83227836D01*
X26960000Y-83012164D02*
X26960000Y-83227836D01*
X41010000Y-91000000D02*
X42500000Y-91000000D01*
X42500000Y-91000000D02*
X42500000Y-92340000D01*
X25690000Y-91000000D02*
X24200000Y-91000000D01*
X24200000Y-91000000D02*
X24200000Y-92340000D01*
X42500000Y-95060000D02*
X42500000Y-95600000D01*
X42500000Y-95600000D02*
X24200000Y-95600000D01*
X24200000Y-95600000D02*
X24200000Y-95060000D01*
X41010000Y-91000000D02*
X41010000Y-89800000D01*
X31100000Y-73550000D02*
X31100000Y-71550000D01*
X31100000Y-71550000D02*
X35000000Y-71550000D01*
X31100000Y-73550000D02*
X35000000Y-73550000D01*
X41090000Y-80549721D02*
X41090000Y-80875279D01*
X42110000Y-80549721D02*
X42110000Y-80875279D01*
X40010000Y-80875279D02*
X40010000Y-80549721D01*
X38990000Y-80875279D02*
X38990000Y-80549721D01*
D12*
X33683333Y-88052380D02*
X33683333Y-88766666D01*
X33730952Y-88909523D01*
X33826190Y-89004761D01*
X33969047Y-89052380D01*
X34064285Y-89052380D01*
X32683333Y-89052380D02*
X33254761Y-89052380D01*
X32969047Y-89052380D02*
X32969047Y-88052380D01*
X33064285Y-88195238D01*
X33159523Y-88290476D01*
X33254761Y-88338095D01*
M02*
