G04 #@! TF.GenerationSoftware,KiCad,Pcbnew,(5.1.9)-1*
G04 #@! TF.CreationDate,2021-02-07T21:53:58-06:00*
G04 #@! TF.ProjectId,epaper-102,65706170-6572-42d3-9130-322e6b696361,rev?*
G04 #@! TF.SameCoordinates,Original*
G04 #@! TF.FileFunction,Copper,L2,Bot*
G04 #@! TF.FilePolarity,Positive*
%FSLAX46Y46*%
G04 Gerber Fmt 4.6, Leading zero omitted, Abs format (unit mm)*
G04 Created by KiCad (PCBNEW (5.1.9)-1) date 2021-02-07 21:53:58*
%MOMM*%
%LPD*%
G01*
G04 APERTURE LIST*
G04 #@! TA.AperFunction,ComponentPad*
%ADD10C,1.400000*%
G04 #@! TD*
G04 #@! TA.AperFunction,SMDPad,CuDef*
%ADD11R,0.300000X1.300000*%
G04 #@! TD*
G04 #@! TA.AperFunction,SMDPad,CuDef*
%ADD12R,1.000000X1.500000*%
G04 #@! TD*
G04 #@! TA.AperFunction,SMDPad,CuDef*
%ADD13R,0.900000X1.200000*%
G04 #@! TD*
G04 #@! TA.AperFunction,ViaPad*
%ADD14C,0.800000*%
G04 #@! TD*
G04 #@! TA.AperFunction,Conductor*
%ADD15C,0.250000*%
G04 #@! TD*
G04 #@! TA.AperFunction,Conductor*
%ADD16C,0.254000*%
G04 #@! TD*
G04 #@! TA.AperFunction,Conductor*
%ADD17C,0.100000*%
G04 #@! TD*
G04 APERTURE END LIST*
G04 #@! TA.AperFunction,SMDPad,CuDef*
G36*
G01*
X27230000Y-85780000D02*
X27570000Y-85780000D01*
G75*
G02*
X27710000Y-85920000I0J-140000D01*
G01*
X27710000Y-86200000D01*
G75*
G02*
X27570000Y-86340000I-140000J0D01*
G01*
X27230000Y-86340000D01*
G75*
G02*
X27090000Y-86200000I0J140000D01*
G01*
X27090000Y-85920000D01*
G75*
G02*
X27230000Y-85780000I140000J0D01*
G01*
G37*
G04 #@! TD.AperFunction*
G04 #@! TA.AperFunction,SMDPad,CuDef*
G36*
G01*
X27230000Y-84820000D02*
X27570000Y-84820000D01*
G75*
G02*
X27710000Y-84960000I0J-140000D01*
G01*
X27710000Y-85240000D01*
G75*
G02*
X27570000Y-85380000I-140000J0D01*
G01*
X27230000Y-85380000D01*
G75*
G02*
X27090000Y-85240000I0J140000D01*
G01*
X27090000Y-84960000D01*
G75*
G02*
X27230000Y-84820000I140000J0D01*
G01*
G37*
G04 #@! TD.AperFunction*
G04 #@! TA.AperFunction,SMDPad,CuDef*
G36*
G01*
X26430000Y-83320000D02*
X26770000Y-83320000D01*
G75*
G02*
X26910000Y-83460000I0J-140000D01*
G01*
X26910000Y-83740000D01*
G75*
G02*
X26770000Y-83880000I-140000J0D01*
G01*
X26430000Y-83880000D01*
G75*
G02*
X26290000Y-83740000I0J140000D01*
G01*
X26290000Y-83460000D01*
G75*
G02*
X26430000Y-83320000I140000J0D01*
G01*
G37*
G04 #@! TD.AperFunction*
G04 #@! TA.AperFunction,SMDPad,CuDef*
G36*
G01*
X26430000Y-82360000D02*
X26770000Y-82360000D01*
G75*
G02*
X26910000Y-82500000I0J-140000D01*
G01*
X26910000Y-82780000D01*
G75*
G02*
X26770000Y-82920000I-140000J0D01*
G01*
X26430000Y-82920000D01*
G75*
G02*
X26290000Y-82780000I0J140000D01*
G01*
X26290000Y-82500000D01*
G75*
G02*
X26430000Y-82360000I140000J0D01*
G01*
G37*
G04 #@! TD.AperFunction*
D10*
X42239800Y-65450000D03*
X39699800Y-65450000D03*
X37159800Y-65450000D03*
X34619800Y-65450000D03*
X32079800Y-65450000D03*
X29539800Y-65450000D03*
X26999800Y-65450000D03*
X24459800Y-65450000D03*
D11*
X26100000Y-90450000D03*
X26600000Y-90450000D03*
X27100000Y-90450000D03*
X27600000Y-90450000D03*
X28100000Y-90450000D03*
X28600000Y-90450000D03*
X29100000Y-90450000D03*
X29600000Y-90450000D03*
X30100000Y-90450000D03*
X30600000Y-90450000D03*
X31100000Y-90450000D03*
X31600000Y-90450000D03*
X32100000Y-90450000D03*
X32600000Y-90450000D03*
X33100000Y-90450000D03*
X33600000Y-90450000D03*
X34100000Y-90450000D03*
X34600000Y-90450000D03*
X35100000Y-90450000D03*
X35600000Y-90450000D03*
X36100000Y-90450000D03*
X36600000Y-90450000D03*
X37100000Y-90450000D03*
X37600000Y-90450000D03*
X38100000Y-90450000D03*
X38600000Y-90450000D03*
X39100000Y-90450000D03*
X39600000Y-90450000D03*
X40100000Y-90450000D03*
X40600000Y-90450000D03*
D12*
X42100000Y-93650000D03*
X24600000Y-93650000D03*
D13*
X35000000Y-72550000D03*
X31700000Y-72550000D03*
G04 #@! TA.AperFunction,SMDPad,CuDef*
G36*
G01*
X41527500Y-85805000D02*
X41872500Y-85805000D01*
G75*
G02*
X42020000Y-85952500I0J-147500D01*
G01*
X42020000Y-86247500D01*
G75*
G02*
X41872500Y-86395000I-147500J0D01*
G01*
X41527500Y-86395000D01*
G75*
G02*
X41380000Y-86247500I0J147500D01*
G01*
X41380000Y-85952500D01*
G75*
G02*
X41527500Y-85805000I147500J0D01*
G01*
G37*
G04 #@! TD.AperFunction*
G04 #@! TA.AperFunction,SMDPad,CuDef*
G36*
G01*
X41527500Y-84835000D02*
X41872500Y-84835000D01*
G75*
G02*
X42020000Y-84982500I0J-147500D01*
G01*
X42020000Y-85277500D01*
G75*
G02*
X41872500Y-85425000I-147500J0D01*
G01*
X41527500Y-85425000D01*
G75*
G02*
X41380000Y-85277500I0J147500D01*
G01*
X41380000Y-84982500D01*
G75*
G02*
X41527500Y-84835000I147500J0D01*
G01*
G37*
G04 #@! TD.AperFunction*
G04 #@! TA.AperFunction,SMDPad,CuDef*
G36*
G01*
X41343750Y-81062500D02*
X41856250Y-81062500D01*
G75*
G02*
X42075000Y-81281250I0J-218750D01*
G01*
X42075000Y-81718750D01*
G75*
G02*
X41856250Y-81937500I-218750J0D01*
G01*
X41343750Y-81937500D01*
G75*
G02*
X41125000Y-81718750I0J218750D01*
G01*
X41125000Y-81281250D01*
G75*
G02*
X41343750Y-81062500I218750J0D01*
G01*
G37*
G04 #@! TD.AperFunction*
G04 #@! TA.AperFunction,SMDPad,CuDef*
G36*
G01*
X41343750Y-79487500D02*
X41856250Y-79487500D01*
G75*
G02*
X42075000Y-79706250I0J-218750D01*
G01*
X42075000Y-80143750D01*
G75*
G02*
X41856250Y-80362500I-218750J0D01*
G01*
X41343750Y-80362500D01*
G75*
G02*
X41125000Y-80143750I0J218750D01*
G01*
X41125000Y-79706250D01*
G75*
G02*
X41343750Y-79487500I218750J0D01*
G01*
G37*
G04 #@! TD.AperFunction*
G04 #@! TA.AperFunction,SMDPad,CuDef*
G36*
G01*
X39627500Y-85805000D02*
X39972500Y-85805000D01*
G75*
G02*
X40120000Y-85952500I0J-147500D01*
G01*
X40120000Y-86247500D01*
G75*
G02*
X39972500Y-86395000I-147500J0D01*
G01*
X39627500Y-86395000D01*
G75*
G02*
X39480000Y-86247500I0J147500D01*
G01*
X39480000Y-85952500D01*
G75*
G02*
X39627500Y-85805000I147500J0D01*
G01*
G37*
G04 #@! TD.AperFunction*
G04 #@! TA.AperFunction,SMDPad,CuDef*
G36*
G01*
X39627500Y-84835000D02*
X39972500Y-84835000D01*
G75*
G02*
X40120000Y-84982500I0J-147500D01*
G01*
X40120000Y-85277500D01*
G75*
G02*
X39972500Y-85425000I-147500J0D01*
G01*
X39627500Y-85425000D01*
G75*
G02*
X39480000Y-85277500I0J147500D01*
G01*
X39480000Y-84982500D01*
G75*
G02*
X39627500Y-84835000I147500J0D01*
G01*
G37*
G04 #@! TD.AperFunction*
G04 #@! TA.AperFunction,SMDPad,CuDef*
G36*
G01*
X39756250Y-80362500D02*
X39243750Y-80362500D01*
G75*
G02*
X39025000Y-80143750I0J218750D01*
G01*
X39025000Y-79706250D01*
G75*
G02*
X39243750Y-79487500I218750J0D01*
G01*
X39756250Y-79487500D01*
G75*
G02*
X39975000Y-79706250I0J-218750D01*
G01*
X39975000Y-80143750D01*
G75*
G02*
X39756250Y-80362500I-218750J0D01*
G01*
G37*
G04 #@! TD.AperFunction*
G04 #@! TA.AperFunction,SMDPad,CuDef*
G36*
G01*
X39756250Y-81937500D02*
X39243750Y-81937500D01*
G75*
G02*
X39025000Y-81718750I0J218750D01*
G01*
X39025000Y-81281250D01*
G75*
G02*
X39243750Y-81062500I218750J0D01*
G01*
X39756250Y-81062500D01*
G75*
G02*
X39975000Y-81281250I0J-218750D01*
G01*
X39975000Y-81718750D01*
G75*
G02*
X39756250Y-81937500I-218750J0D01*
G01*
G37*
G04 #@! TD.AperFunction*
G04 #@! TA.AperFunction,SMDPad,CuDef*
G36*
G01*
X36247500Y-80855000D02*
X36592500Y-80855000D01*
G75*
G02*
X36740000Y-81002500I0J-147500D01*
G01*
X36740000Y-81297500D01*
G75*
G02*
X36592500Y-81445000I-147500J0D01*
G01*
X36247500Y-81445000D01*
G75*
G02*
X36100000Y-81297500I0J147500D01*
G01*
X36100000Y-81002500D01*
G75*
G02*
X36247500Y-80855000I147500J0D01*
G01*
G37*
G04 #@! TD.AperFunction*
G04 #@! TA.AperFunction,SMDPad,CuDef*
G36*
G01*
X36247500Y-79885000D02*
X36592500Y-79885000D01*
G75*
G02*
X36740000Y-80032500I0J-147500D01*
G01*
X36740000Y-80327500D01*
G75*
G02*
X36592500Y-80475000I-147500J0D01*
G01*
X36247500Y-80475000D01*
G75*
G02*
X36100000Y-80327500I0J147500D01*
G01*
X36100000Y-80032500D01*
G75*
G02*
X36247500Y-79885000I147500J0D01*
G01*
G37*
G04 #@! TD.AperFunction*
G04 #@! TA.AperFunction,SMDPad,CuDef*
G36*
G01*
X36147500Y-85755000D02*
X36492500Y-85755000D01*
G75*
G02*
X36640000Y-85902500I0J-147500D01*
G01*
X36640000Y-86197500D01*
G75*
G02*
X36492500Y-86345000I-147500J0D01*
G01*
X36147500Y-86345000D01*
G75*
G02*
X36000000Y-86197500I0J147500D01*
G01*
X36000000Y-85902500D01*
G75*
G02*
X36147500Y-85755000I147500J0D01*
G01*
G37*
G04 #@! TD.AperFunction*
G04 #@! TA.AperFunction,SMDPad,CuDef*
G36*
G01*
X36147500Y-84785000D02*
X36492500Y-84785000D01*
G75*
G02*
X36640000Y-84932500I0J-147500D01*
G01*
X36640000Y-85227500D01*
G75*
G02*
X36492500Y-85375000I-147500J0D01*
G01*
X36147500Y-85375000D01*
G75*
G02*
X36000000Y-85227500I0J147500D01*
G01*
X36000000Y-84932500D01*
G75*
G02*
X36147500Y-84785000I147500J0D01*
G01*
G37*
G04 #@! TD.AperFunction*
G04 #@! TA.AperFunction,SMDPad,CuDef*
G36*
G01*
X33707500Y-80855000D02*
X34052500Y-80855000D01*
G75*
G02*
X34200000Y-81002500I0J-147500D01*
G01*
X34200000Y-81297500D01*
G75*
G02*
X34052500Y-81445000I-147500J0D01*
G01*
X33707500Y-81445000D01*
G75*
G02*
X33560000Y-81297500I0J147500D01*
G01*
X33560000Y-81002500D01*
G75*
G02*
X33707500Y-80855000I147500J0D01*
G01*
G37*
G04 #@! TD.AperFunction*
G04 #@! TA.AperFunction,SMDPad,CuDef*
G36*
G01*
X33707500Y-79885000D02*
X34052500Y-79885000D01*
G75*
G02*
X34200000Y-80032500I0J-147500D01*
G01*
X34200000Y-80327500D01*
G75*
G02*
X34052500Y-80475000I-147500J0D01*
G01*
X33707500Y-80475000D01*
G75*
G02*
X33560000Y-80327500I0J147500D01*
G01*
X33560000Y-80032500D01*
G75*
G02*
X33707500Y-79885000I147500J0D01*
G01*
G37*
G04 #@! TD.AperFunction*
G04 #@! TA.AperFunction,SMDPad,CuDef*
G36*
G01*
X33607500Y-85755000D02*
X33952500Y-85755000D01*
G75*
G02*
X34100000Y-85902500I0J-147500D01*
G01*
X34100000Y-86197500D01*
G75*
G02*
X33952500Y-86345000I-147500J0D01*
G01*
X33607500Y-86345000D01*
G75*
G02*
X33460000Y-86197500I0J147500D01*
G01*
X33460000Y-85902500D01*
G75*
G02*
X33607500Y-85755000I147500J0D01*
G01*
G37*
G04 #@! TD.AperFunction*
G04 #@! TA.AperFunction,SMDPad,CuDef*
G36*
G01*
X33607500Y-84785000D02*
X33952500Y-84785000D01*
G75*
G02*
X34100000Y-84932500I0J-147500D01*
G01*
X34100000Y-85227500D01*
G75*
G02*
X33952500Y-85375000I-147500J0D01*
G01*
X33607500Y-85375000D01*
G75*
G02*
X33460000Y-85227500I0J147500D01*
G01*
X33460000Y-84932500D01*
G75*
G02*
X33607500Y-84785000I147500J0D01*
G01*
G37*
G04 #@! TD.AperFunction*
G04 #@! TA.AperFunction,SMDPad,CuDef*
G36*
G01*
X31067500Y-85775000D02*
X31412500Y-85775000D01*
G75*
G02*
X31560000Y-85922500I0J-147500D01*
G01*
X31560000Y-86217500D01*
G75*
G02*
X31412500Y-86365000I-147500J0D01*
G01*
X31067500Y-86365000D01*
G75*
G02*
X30920000Y-86217500I0J147500D01*
G01*
X30920000Y-85922500D01*
G75*
G02*
X31067500Y-85775000I147500J0D01*
G01*
G37*
G04 #@! TD.AperFunction*
G04 #@! TA.AperFunction,SMDPad,CuDef*
G36*
G01*
X31067500Y-84805000D02*
X31412500Y-84805000D01*
G75*
G02*
X31560000Y-84952500I0J-147500D01*
G01*
X31560000Y-85247500D01*
G75*
G02*
X31412500Y-85395000I-147500J0D01*
G01*
X31067500Y-85395000D01*
G75*
G02*
X30920000Y-85247500I0J147500D01*
G01*
X30920000Y-84952500D01*
G75*
G02*
X31067500Y-84805000I147500J0D01*
G01*
G37*
G04 #@! TD.AperFunction*
G04 #@! TA.AperFunction,SMDPad,CuDef*
G36*
G01*
X31167500Y-80875000D02*
X31512500Y-80875000D01*
G75*
G02*
X31660000Y-81022500I0J-147500D01*
G01*
X31660000Y-81317500D01*
G75*
G02*
X31512500Y-81465000I-147500J0D01*
G01*
X31167500Y-81465000D01*
G75*
G02*
X31020000Y-81317500I0J147500D01*
G01*
X31020000Y-81022500D01*
G75*
G02*
X31167500Y-80875000I147500J0D01*
G01*
G37*
G04 #@! TD.AperFunction*
G04 #@! TA.AperFunction,SMDPad,CuDef*
G36*
G01*
X31167500Y-79905000D02*
X31512500Y-79905000D01*
G75*
G02*
X31660000Y-80052500I0J-147500D01*
G01*
X31660000Y-80347500D01*
G75*
G02*
X31512500Y-80495000I-147500J0D01*
G01*
X31167500Y-80495000D01*
G75*
G02*
X31020000Y-80347500I0J147500D01*
G01*
X31020000Y-80052500D01*
G75*
G02*
X31167500Y-79905000I147500J0D01*
G01*
G37*
G04 #@! TD.AperFunction*
G04 #@! TA.AperFunction,SMDPad,CuDef*
G36*
G01*
X28627500Y-80855000D02*
X28972500Y-80855000D01*
G75*
G02*
X29120000Y-81002500I0J-147500D01*
G01*
X29120000Y-81297500D01*
G75*
G02*
X28972500Y-81445000I-147500J0D01*
G01*
X28627500Y-81445000D01*
G75*
G02*
X28480000Y-81297500I0J147500D01*
G01*
X28480000Y-81002500D01*
G75*
G02*
X28627500Y-80855000I147500J0D01*
G01*
G37*
G04 #@! TD.AperFunction*
G04 #@! TA.AperFunction,SMDPad,CuDef*
G36*
G01*
X28627500Y-79885000D02*
X28972500Y-79885000D01*
G75*
G02*
X29120000Y-80032500I0J-147500D01*
G01*
X29120000Y-80327500D01*
G75*
G02*
X28972500Y-80475000I-147500J0D01*
G01*
X28627500Y-80475000D01*
G75*
G02*
X28480000Y-80327500I0J147500D01*
G01*
X28480000Y-80032500D01*
G75*
G02*
X28627500Y-79885000I147500J0D01*
G01*
G37*
G04 #@! TD.AperFunction*
G04 #@! TA.AperFunction,SMDPad,CuDef*
G36*
G01*
X26027500Y-80805000D02*
X26372500Y-80805000D01*
G75*
G02*
X26520000Y-80952500I0J-147500D01*
G01*
X26520000Y-81247500D01*
G75*
G02*
X26372500Y-81395000I-147500J0D01*
G01*
X26027500Y-81395000D01*
G75*
G02*
X25880000Y-81247500I0J147500D01*
G01*
X25880000Y-80952500D01*
G75*
G02*
X26027500Y-80805000I147500J0D01*
G01*
G37*
G04 #@! TD.AperFunction*
G04 #@! TA.AperFunction,SMDPad,CuDef*
G36*
G01*
X26027500Y-79835000D02*
X26372500Y-79835000D01*
G75*
G02*
X26520000Y-79982500I0J-147500D01*
G01*
X26520000Y-80277500D01*
G75*
G02*
X26372500Y-80425000I-147500J0D01*
G01*
X26027500Y-80425000D01*
G75*
G02*
X25880000Y-80277500I0J147500D01*
G01*
X25880000Y-79982500D01*
G75*
G02*
X26027500Y-79835000I147500J0D01*
G01*
G37*
G04 #@! TD.AperFunction*
G04 #@! TA.AperFunction,SMDPad,CuDef*
G36*
G01*
X28527500Y-85775000D02*
X28872500Y-85775000D01*
G75*
G02*
X29020000Y-85922500I0J-147500D01*
G01*
X29020000Y-86217500D01*
G75*
G02*
X28872500Y-86365000I-147500J0D01*
G01*
X28527500Y-86365000D01*
G75*
G02*
X28380000Y-86217500I0J147500D01*
G01*
X28380000Y-85922500D01*
G75*
G02*
X28527500Y-85775000I147500J0D01*
G01*
G37*
G04 #@! TD.AperFunction*
G04 #@! TA.AperFunction,SMDPad,CuDef*
G36*
G01*
X28527500Y-84805000D02*
X28872500Y-84805000D01*
G75*
G02*
X29020000Y-84952500I0J-147500D01*
G01*
X29020000Y-85247500D01*
G75*
G02*
X28872500Y-85395000I-147500J0D01*
G01*
X28527500Y-85395000D01*
G75*
G02*
X28380000Y-85247500I0J147500D01*
G01*
X28380000Y-84952500D01*
G75*
G02*
X28527500Y-84805000I147500J0D01*
G01*
G37*
G04 #@! TD.AperFunction*
G04 #@! TA.AperFunction,SMDPad,CuDef*
G36*
G01*
X25987500Y-85755000D02*
X26332500Y-85755000D01*
G75*
G02*
X26480000Y-85902500I0J-147500D01*
G01*
X26480000Y-86197500D01*
G75*
G02*
X26332500Y-86345000I-147500J0D01*
G01*
X25987500Y-86345000D01*
G75*
G02*
X25840000Y-86197500I0J147500D01*
G01*
X25840000Y-85902500D01*
G75*
G02*
X25987500Y-85755000I147500J0D01*
G01*
G37*
G04 #@! TD.AperFunction*
G04 #@! TA.AperFunction,SMDPad,CuDef*
G36*
G01*
X25987500Y-84785000D02*
X26332500Y-84785000D01*
G75*
G02*
X26480000Y-84932500I0J-147500D01*
G01*
X26480000Y-85227500D01*
G75*
G02*
X26332500Y-85375000I-147500J0D01*
G01*
X25987500Y-85375000D01*
G75*
G02*
X25840000Y-85227500I0J147500D01*
G01*
X25840000Y-84932500D01*
G75*
G02*
X25987500Y-84785000I147500J0D01*
G01*
G37*
G04 #@! TD.AperFunction*
G04 #@! TA.AperFunction,SMDPad,CuDef*
G36*
G01*
X24727500Y-83305000D02*
X25072500Y-83305000D01*
G75*
G02*
X25220000Y-83452500I0J-147500D01*
G01*
X25220000Y-83747500D01*
G75*
G02*
X25072500Y-83895000I-147500J0D01*
G01*
X24727500Y-83895000D01*
G75*
G02*
X24580000Y-83747500I0J147500D01*
G01*
X24580000Y-83452500D01*
G75*
G02*
X24727500Y-83305000I147500J0D01*
G01*
G37*
G04 #@! TD.AperFunction*
G04 #@! TA.AperFunction,SMDPad,CuDef*
G36*
G01*
X24727500Y-82335000D02*
X25072500Y-82335000D01*
G75*
G02*
X25220000Y-82482500I0J-147500D01*
G01*
X25220000Y-82777500D01*
G75*
G02*
X25072500Y-82925000I-147500J0D01*
G01*
X24727500Y-82925000D01*
G75*
G02*
X24580000Y-82777500I0J147500D01*
G01*
X24580000Y-82482500D01*
G75*
G02*
X24727500Y-82335000I147500J0D01*
G01*
G37*
G04 #@! TD.AperFunction*
D14*
X34400000Y-76600000D03*
X37700000Y-76500000D03*
X41300000Y-76500000D03*
X37800000Y-73200000D03*
X41300000Y-73000000D03*
X41300000Y-69900000D03*
X26200000Y-76400000D03*
X26300000Y-74100000D03*
X26000000Y-69300000D03*
X34700000Y-92500000D03*
X39400000Y-92500000D03*
X37000000Y-94200000D03*
X31300000Y-69000000D03*
X29500000Y-70900000D03*
X26700000Y-84400000D03*
X34000000Y-82600000D03*
X34000000Y-83900000D03*
X36500000Y-82600000D03*
X36600000Y-83900000D03*
X40100000Y-83200000D03*
X42100000Y-83300000D03*
X25000000Y-72500000D03*
X32600015Y-94400000D03*
X31600012Y-94400000D03*
X30600009Y-94400000D03*
X30600000Y-74500000D03*
X29600006Y-94400000D03*
X29600000Y-75700000D03*
X28600003Y-94400000D03*
X34700000Y-69200000D03*
X27600000Y-94400000D03*
D15*
X26600000Y-90450000D02*
X26600000Y-91500000D01*
X30600000Y-90450000D02*
X30600000Y-91600000D01*
X30600000Y-91600000D02*
X30900000Y-91900000D01*
X28700000Y-85100000D02*
X28700000Y-84400000D01*
X28700000Y-84400000D02*
X28500000Y-84200000D01*
X27400000Y-85100000D02*
X27400000Y-84500000D01*
X27400000Y-84500000D02*
X27600000Y-84300000D01*
X26160000Y-84940000D02*
X26700000Y-84400000D01*
X26160000Y-85080000D02*
X26160000Y-84940000D01*
X26600000Y-84300000D02*
X26700000Y-84400000D01*
X26600000Y-83600000D02*
X26600000Y-84300000D01*
X26700000Y-84400000D02*
X27100000Y-84000000D01*
X27100000Y-84000000D02*
X27600000Y-84000000D01*
X28800000Y-80180000D02*
X29580000Y-80180000D01*
X29580000Y-80180000D02*
X29600000Y-80200000D01*
X29600000Y-80200000D02*
X29600000Y-80900000D01*
X29600000Y-80200000D02*
X29600000Y-79400000D01*
X27100000Y-90450000D02*
X27100000Y-87978232D01*
X25514990Y-86393222D02*
X25514990Y-84185010D01*
X27100000Y-87978232D02*
X25514990Y-86393222D01*
X25514990Y-84185010D02*
X25800000Y-83900000D01*
X25220000Y-82630000D02*
X24900000Y-82630000D01*
X25800000Y-83210000D02*
X25220000Y-82630000D01*
X25800000Y-83900000D02*
X25800000Y-83210000D01*
X26370000Y-82640000D02*
X26600000Y-82640000D01*
X25800000Y-83210000D02*
X26370000Y-82640000D01*
X24900000Y-72600000D02*
X25000000Y-72500000D01*
X24900000Y-82630000D02*
X24900000Y-72600000D01*
X26160000Y-86050000D02*
X26914615Y-86804615D01*
X26914615Y-86804615D02*
X28995385Y-86804615D01*
X31100000Y-88909230D02*
X31100000Y-90450000D01*
X28995385Y-86804615D02*
X31100000Y-88909230D01*
X28700000Y-86070000D02*
X28897180Y-86070000D01*
X31600000Y-88772820D02*
X31600000Y-90450000D01*
X28897180Y-86070000D02*
X31600000Y-88772820D01*
X32100000Y-88636410D02*
X32100000Y-90450000D01*
X30144981Y-86681391D02*
X32100000Y-88636410D01*
X30144981Y-85044981D02*
X26200000Y-81100000D01*
X30144981Y-86681391D02*
X30144981Y-85044981D01*
X32600000Y-88500000D02*
X32600000Y-90450000D01*
X30594990Y-86494990D02*
X32600000Y-88500000D01*
X30594990Y-86494990D02*
X30594990Y-84858580D01*
X28800000Y-83063590D02*
X28800000Y-81150000D01*
X30594990Y-84858580D02*
X28800000Y-83063590D01*
X33600000Y-87700000D02*
X33600000Y-90450000D01*
X32684980Y-86784980D02*
X33600000Y-87700000D01*
X32684980Y-82514980D02*
X31340000Y-81170000D01*
X32684980Y-86784980D02*
X32684980Y-82514980D01*
X34100000Y-87500000D02*
X34100000Y-90450000D01*
X33134990Y-86534990D02*
X34100000Y-87500000D01*
X31660000Y-80200000D02*
X31340000Y-80200000D01*
X33134990Y-81674990D02*
X31660000Y-80200000D01*
X33134990Y-86534990D02*
X33134990Y-81674990D01*
X31240000Y-86070000D02*
X31333590Y-86070000D01*
X33100000Y-87836410D02*
X33100000Y-90450000D01*
X31333590Y-86070000D02*
X33100000Y-87836410D01*
X30100000Y-77450000D02*
X35000000Y-72550000D01*
X30100000Y-81300000D02*
X30100000Y-77450000D01*
X32100000Y-83300000D02*
X30100000Y-81300000D01*
X32100000Y-85530000D02*
X32100000Y-83300000D01*
X31560000Y-86070000D02*
X32100000Y-85530000D01*
X31240000Y-86070000D02*
X31560000Y-86070000D01*
X33780000Y-86050000D02*
X33780000Y-86480000D01*
X34600000Y-87300000D02*
X34600000Y-90450000D01*
X33780000Y-86480000D02*
X34600000Y-87300000D01*
X35100000Y-87100000D02*
X35100000Y-90450000D01*
X34774972Y-86774972D02*
X35100000Y-87100000D01*
X34100000Y-85080000D02*
X34774972Y-85754972D01*
X34774972Y-85754972D02*
X34774972Y-86774972D01*
X33780000Y-85080000D02*
X34100000Y-85080000D01*
X35224981Y-86579623D02*
X35631758Y-86986400D01*
X35600000Y-89363516D02*
X35600000Y-90450000D01*
X35631758Y-89331758D02*
X35600000Y-89363516D01*
X35631758Y-86986400D02*
X35631758Y-89331758D01*
X35224981Y-82494981D02*
X33880000Y-81150000D01*
X35224981Y-86579623D02*
X35224981Y-82494981D01*
X35674990Y-86393222D02*
X36081768Y-86800000D01*
X36100000Y-89100000D02*
X36100000Y-90450000D01*
X36081768Y-89081768D02*
X36100000Y-89100000D01*
X36081768Y-86800000D02*
X36081768Y-89081768D01*
X34200000Y-80180000D02*
X33880000Y-80180000D01*
X35674990Y-81654990D02*
X34200000Y-80180000D01*
X35674990Y-86393222D02*
X35674990Y-81654990D01*
X36600000Y-86330000D02*
X36600000Y-90450000D01*
X36320000Y-86050000D02*
X36600000Y-86330000D01*
X37100000Y-85540000D02*
X37100000Y-90450000D01*
X36640000Y-85080000D02*
X37100000Y-85540000D01*
X36320000Y-85080000D02*
X36640000Y-85080000D01*
X37600000Y-82330000D02*
X36420000Y-81150000D01*
X37600000Y-90450000D02*
X37600000Y-82330000D01*
X36740000Y-80180000D02*
X36420000Y-80180000D01*
X38100000Y-81540000D02*
X36740000Y-80180000D01*
X38100000Y-90450000D02*
X38100000Y-81540000D01*
X38649990Y-80775010D02*
X39500000Y-79925000D01*
X38649990Y-89550010D02*
X38649990Y-80775010D01*
X38600000Y-89600000D02*
X38649990Y-89550010D01*
X38600000Y-90450000D02*
X38600000Y-89600000D01*
X39100000Y-81900000D02*
X39500000Y-81500000D01*
X39100000Y-90450000D02*
X39100000Y-81900000D01*
X39600000Y-86300000D02*
X39600000Y-90450000D01*
X39800000Y-86100000D02*
X39600000Y-86300000D01*
X40100000Y-88800000D02*
X40100000Y-90450000D01*
X41054990Y-87845010D02*
X40100000Y-88800000D01*
X41054990Y-82045010D02*
X41600000Y-81500000D01*
X41054990Y-87845010D02*
X41054990Y-82045010D01*
X40600000Y-90450000D02*
X40600000Y-89000000D01*
X41700000Y-87900000D02*
X41700000Y-86100000D01*
X40600000Y-89000000D02*
X41700000Y-87900000D01*
X32600015Y-94327001D02*
X32600015Y-94400000D01*
X30100000Y-91826986D02*
X32600015Y-94327001D01*
X30100000Y-90450000D02*
X30100000Y-91826986D01*
X31600012Y-94327001D02*
X31600012Y-94400000D01*
X29600000Y-92326989D02*
X31600012Y-94327001D01*
X29600000Y-90450000D02*
X29600000Y-92326989D01*
X30600009Y-94327001D02*
X30600009Y-94400000D01*
X29100000Y-92826992D02*
X30600009Y-94327001D01*
X29100000Y-90450000D02*
X29100000Y-92826992D01*
X26999800Y-70899800D02*
X26999800Y-65450000D01*
X30600000Y-74500000D02*
X26999800Y-70899800D01*
X28600000Y-93326995D02*
X29600006Y-94327001D01*
X29600006Y-94327001D02*
X29600006Y-94400000D01*
X28600000Y-90450000D02*
X28600000Y-93326995D01*
X24459800Y-70559800D02*
X24459800Y-65450000D01*
X29600000Y-75700000D02*
X24459800Y-70559800D01*
X28600003Y-94327001D02*
X28600003Y-94400000D01*
X28100000Y-93826998D02*
X28600003Y-94327001D01*
X28100000Y-90450000D02*
X28100000Y-93826998D01*
X34700000Y-65530200D02*
X34619800Y-65450000D01*
X34700000Y-69200000D02*
X34700000Y-65530200D01*
X27600000Y-90450000D02*
X27600000Y-94400000D01*
X27400000Y-86319230D02*
X26914615Y-86804615D01*
X27400000Y-86060000D02*
X27400000Y-86319230D01*
D16*
X42426148Y-63465413D02*
X42499397Y-63487528D01*
X42566961Y-63523452D01*
X42626254Y-63571811D01*
X42675027Y-63630767D01*
X42711420Y-63698074D01*
X42734045Y-63771167D01*
X42744001Y-63865886D01*
X42744001Y-64488782D01*
X42555116Y-64410543D01*
X42346269Y-64369000D01*
X42133331Y-64369000D01*
X41924484Y-64410543D01*
X41727755Y-64492031D01*
X41550703Y-64610333D01*
X41400133Y-64760903D01*
X41281831Y-64937955D01*
X41200343Y-65134684D01*
X41158800Y-65343531D01*
X41158800Y-65556469D01*
X41200343Y-65765316D01*
X41281831Y-65962045D01*
X41400133Y-66139097D01*
X41550703Y-66289667D01*
X41727755Y-66407969D01*
X41924484Y-66489457D01*
X42133331Y-66531000D01*
X42346269Y-66531000D01*
X42555116Y-66489457D01*
X42744001Y-66411218D01*
X42744000Y-92545538D01*
X42674689Y-92524513D01*
X42600000Y-92517157D01*
X41600000Y-92517157D01*
X41525311Y-92524513D01*
X41453492Y-92546299D01*
X41387304Y-92581678D01*
X41329289Y-92629289D01*
X41281678Y-92687304D01*
X41246299Y-92753492D01*
X41224513Y-92825311D01*
X41217157Y-92900000D01*
X41217157Y-94400000D01*
X41224513Y-94474689D01*
X41246299Y-94546508D01*
X41281678Y-94612696D01*
X41329289Y-94670711D01*
X41387304Y-94718322D01*
X41453492Y-94753701D01*
X41525311Y-94775487D01*
X41600000Y-94782843D01*
X42600000Y-94782843D01*
X42674689Y-94775487D01*
X42744000Y-94754462D01*
X42744000Y-100830146D01*
X42734587Y-100926148D01*
X42712471Y-100999401D01*
X42676548Y-101066961D01*
X42628190Y-101126254D01*
X42569232Y-101175027D01*
X42501924Y-101211421D01*
X42428837Y-101234045D01*
X42334123Y-101244000D01*
X41775024Y-101244000D01*
X40901582Y-99846493D01*
X40889210Y-99823347D01*
X40867745Y-99797192D01*
X40847122Y-99770442D01*
X40842429Y-99766345D01*
X40838474Y-99761526D01*
X40812336Y-99740075D01*
X40786875Y-99717848D01*
X40781472Y-99714745D01*
X40776653Y-99710790D01*
X40746826Y-99694847D01*
X40717523Y-99678018D01*
X40711620Y-99676029D01*
X40706121Y-99673090D01*
X40673752Y-99663271D01*
X40641734Y-99652484D01*
X40635557Y-99651685D01*
X40629590Y-99649875D01*
X40595941Y-99646561D01*
X40562420Y-99642225D01*
X40536251Y-99644000D01*
X30063744Y-99644000D01*
X30037579Y-99642225D01*
X30004055Y-99646561D01*
X29970410Y-99649875D01*
X29964444Y-99651685D01*
X29958265Y-99652484D01*
X29926238Y-99663274D01*
X29893879Y-99673090D01*
X29888382Y-99676028D01*
X29882476Y-99678018D01*
X29853160Y-99694855D01*
X29823347Y-99710790D01*
X29818530Y-99714743D01*
X29813124Y-99717848D01*
X29787656Y-99740082D01*
X29761526Y-99761526D01*
X29757571Y-99766345D01*
X29752877Y-99770443D01*
X29732245Y-99797205D01*
X29710790Y-99823347D01*
X29698424Y-99846482D01*
X28824976Y-101244000D01*
X24369854Y-101244000D01*
X24273852Y-101234587D01*
X24200599Y-101212471D01*
X24133039Y-101176548D01*
X24073746Y-101128190D01*
X24024973Y-101069232D01*
X23988579Y-101001924D01*
X23965955Y-100928837D01*
X23956000Y-100834123D01*
X23956000Y-94754462D01*
X24025311Y-94775487D01*
X24100000Y-94782843D01*
X25100000Y-94782843D01*
X25174689Y-94775487D01*
X25246508Y-94753701D01*
X25312696Y-94718322D01*
X25370711Y-94670711D01*
X25418322Y-94612696D01*
X25453701Y-94546508D01*
X25475487Y-94474689D01*
X25482843Y-94400000D01*
X25482843Y-92900000D01*
X25475487Y-92825311D01*
X25453701Y-92753492D01*
X25418322Y-92687304D01*
X25370711Y-92629289D01*
X25312696Y-92581678D01*
X25246508Y-92546299D01*
X25174689Y-92524513D01*
X25100000Y-92517157D01*
X24100000Y-92517157D01*
X24025311Y-92524513D01*
X23956000Y-92545538D01*
X23956000Y-84025455D01*
X23990498Y-84139180D01*
X24049463Y-84249494D01*
X24128815Y-84346185D01*
X24225506Y-84425537D01*
X24335820Y-84484502D01*
X24455518Y-84520812D01*
X24580000Y-84533072D01*
X24614250Y-84530000D01*
X24773000Y-84371250D01*
X24773000Y-83727000D01*
X24753000Y-83727000D01*
X24753000Y-83473000D01*
X24773000Y-83473000D01*
X24773000Y-83453000D01*
X25027000Y-83453000D01*
X25027000Y-83473000D01*
X25047000Y-83473000D01*
X25047000Y-83727000D01*
X25027000Y-83727000D01*
X25027000Y-84050583D01*
X25016312Y-84085818D01*
X25006543Y-84185010D01*
X25008991Y-84209866D01*
X25008990Y-86368376D01*
X25006543Y-86393222D01*
X25008990Y-86418068D01*
X25008990Y-86418075D01*
X25016312Y-86492414D01*
X25045245Y-86587796D01*
X25092231Y-86675701D01*
X25155463Y-86752749D01*
X25174775Y-86768598D01*
X26594001Y-88187825D01*
X26594000Y-89165000D01*
X26472998Y-89165000D01*
X26472998Y-89219748D01*
X26418250Y-89165000D01*
X26315268Y-89176315D01*
X26196182Y-89214584D01*
X26086850Y-89275350D01*
X25991474Y-89356278D01*
X25942581Y-89417888D01*
X25875311Y-89424513D01*
X25803492Y-89446299D01*
X25737304Y-89481678D01*
X25679289Y-89529289D01*
X25631678Y-89587304D01*
X25596299Y-89653492D01*
X25574513Y-89725311D01*
X25567157Y-89800000D01*
X25567157Y-91100000D01*
X25574513Y-91174689D01*
X25596299Y-91246508D01*
X25631678Y-91312696D01*
X25679289Y-91370711D01*
X25737304Y-91418322D01*
X25803492Y-91453701D01*
X25875311Y-91475487D01*
X25942581Y-91482112D01*
X25991474Y-91543722D01*
X26086850Y-91624650D01*
X26196182Y-91685416D01*
X26315268Y-91723685D01*
X26418250Y-91735000D01*
X26577000Y-91576250D01*
X26577000Y-91296461D01*
X26600000Y-91253432D01*
X26623000Y-91296461D01*
X26623000Y-91576250D01*
X26781750Y-91735000D01*
X26884732Y-91723685D01*
X27003818Y-91685416D01*
X27094000Y-91635293D01*
X27094001Y-93801498D01*
X26993358Y-93902141D01*
X26907887Y-94030058D01*
X26849013Y-94172191D01*
X26819000Y-94323078D01*
X26819000Y-94476922D01*
X26849013Y-94627809D01*
X26907887Y-94769942D01*
X26993358Y-94897859D01*
X27102141Y-95006642D01*
X27230058Y-95092113D01*
X27372191Y-95150987D01*
X27523078Y-95181000D01*
X27676922Y-95181000D01*
X27827809Y-95150987D01*
X27969942Y-95092113D01*
X28097859Y-95006642D01*
X28100002Y-95004500D01*
X28102144Y-95006642D01*
X28230061Y-95092113D01*
X28372194Y-95150987D01*
X28523081Y-95181000D01*
X28676925Y-95181000D01*
X28827812Y-95150987D01*
X28969945Y-95092113D01*
X29097862Y-95006642D01*
X29100005Y-95004500D01*
X29102147Y-95006642D01*
X29230064Y-95092113D01*
X29372197Y-95150987D01*
X29523084Y-95181000D01*
X29676928Y-95181000D01*
X29827815Y-95150987D01*
X29969948Y-95092113D01*
X30097865Y-95006642D01*
X30100008Y-95004500D01*
X30102150Y-95006642D01*
X30230067Y-95092113D01*
X30372200Y-95150987D01*
X30523087Y-95181000D01*
X30676931Y-95181000D01*
X30827818Y-95150987D01*
X30969951Y-95092113D01*
X31097868Y-95006642D01*
X31100011Y-95004500D01*
X31102153Y-95006642D01*
X31230070Y-95092113D01*
X31372203Y-95150987D01*
X31523090Y-95181000D01*
X31676934Y-95181000D01*
X31827821Y-95150987D01*
X31969954Y-95092113D01*
X32097871Y-95006642D01*
X32100014Y-95004500D01*
X32102156Y-95006642D01*
X32230073Y-95092113D01*
X32372206Y-95150987D01*
X32523093Y-95181000D01*
X32676937Y-95181000D01*
X32827824Y-95150987D01*
X32969957Y-95092113D01*
X33097874Y-95006642D01*
X33206657Y-94897859D01*
X33292128Y-94769942D01*
X33351002Y-94627809D01*
X33381015Y-94476922D01*
X33381015Y-94323078D01*
X33351002Y-94172191D01*
X33292128Y-94030058D01*
X33206657Y-93902141D01*
X33097874Y-93793358D01*
X32969957Y-93707887D01*
X32827824Y-93649013D01*
X32676937Y-93619000D01*
X32607606Y-93619000D01*
X30723605Y-91735000D01*
X30727002Y-91735000D01*
X30727002Y-91680252D01*
X30781750Y-91735000D01*
X30884732Y-91723685D01*
X31003818Y-91685416D01*
X31113150Y-91624650D01*
X31208526Y-91543722D01*
X31257419Y-91482112D01*
X31324689Y-91475487D01*
X31350000Y-91467809D01*
X31375311Y-91475487D01*
X31450000Y-91482843D01*
X31750000Y-91482843D01*
X31824689Y-91475487D01*
X31850000Y-91467809D01*
X31875311Y-91475487D01*
X31950000Y-91482843D01*
X32250000Y-91482843D01*
X32324689Y-91475487D01*
X32350000Y-91467809D01*
X32375311Y-91475487D01*
X32450000Y-91482843D01*
X32750000Y-91482843D01*
X32824689Y-91475487D01*
X32850000Y-91467809D01*
X32875311Y-91475487D01*
X32950000Y-91482843D01*
X33250000Y-91482843D01*
X33324689Y-91475487D01*
X33350000Y-91467809D01*
X33375311Y-91475487D01*
X33450000Y-91482843D01*
X33750000Y-91482843D01*
X33824689Y-91475487D01*
X33850000Y-91467809D01*
X33875311Y-91475487D01*
X33950000Y-91482843D01*
X34250000Y-91482843D01*
X34324689Y-91475487D01*
X34350000Y-91467809D01*
X34375311Y-91475487D01*
X34450000Y-91482843D01*
X34750000Y-91482843D01*
X34824689Y-91475487D01*
X34850000Y-91467809D01*
X34875311Y-91475487D01*
X34950000Y-91482843D01*
X35250000Y-91482843D01*
X35324689Y-91475487D01*
X35350000Y-91467809D01*
X35375311Y-91475487D01*
X35450000Y-91482843D01*
X35750000Y-91482843D01*
X35824689Y-91475487D01*
X35850000Y-91467809D01*
X35875311Y-91475487D01*
X35950000Y-91482843D01*
X36250000Y-91482843D01*
X36324689Y-91475487D01*
X36350000Y-91467809D01*
X36375311Y-91475487D01*
X36450000Y-91482843D01*
X36750000Y-91482843D01*
X36824689Y-91475487D01*
X36850000Y-91467809D01*
X36875311Y-91475487D01*
X36950000Y-91482843D01*
X37250000Y-91482843D01*
X37324689Y-91475487D01*
X37350000Y-91467809D01*
X37375311Y-91475487D01*
X37450000Y-91482843D01*
X37750000Y-91482843D01*
X37824689Y-91475487D01*
X37850000Y-91467809D01*
X37875311Y-91475487D01*
X37950000Y-91482843D01*
X38250000Y-91482843D01*
X38324689Y-91475487D01*
X38350000Y-91467809D01*
X38375311Y-91475487D01*
X38450000Y-91482843D01*
X38750000Y-91482843D01*
X38824689Y-91475487D01*
X38850000Y-91467809D01*
X38875311Y-91475487D01*
X38950000Y-91482843D01*
X39250000Y-91482843D01*
X39324689Y-91475487D01*
X39350000Y-91467809D01*
X39375311Y-91475487D01*
X39450000Y-91482843D01*
X39750000Y-91482843D01*
X39824689Y-91475487D01*
X39850000Y-91467809D01*
X39875311Y-91475487D01*
X39950000Y-91482843D01*
X40250000Y-91482843D01*
X40324689Y-91475487D01*
X40350000Y-91467809D01*
X40375311Y-91475487D01*
X40450000Y-91482843D01*
X40750000Y-91482843D01*
X40824689Y-91475487D01*
X40896508Y-91453701D01*
X40962696Y-91418322D01*
X41020711Y-91370711D01*
X41068322Y-91312696D01*
X41103701Y-91246508D01*
X41125487Y-91174689D01*
X41132843Y-91100000D01*
X41132843Y-89800000D01*
X41125487Y-89725311D01*
X41106000Y-89661071D01*
X41106000Y-89209591D01*
X42040220Y-88275372D01*
X42059527Y-88259527D01*
X42122759Y-88182479D01*
X42169745Y-88094575D01*
X42198678Y-87999193D01*
X42206000Y-87924854D01*
X42206000Y-87924853D01*
X42208448Y-87900000D01*
X42206000Y-87875146D01*
X42206000Y-86656575D01*
X42247509Y-86622509D01*
X42313464Y-86542143D01*
X42362473Y-86450453D01*
X42392653Y-86350965D01*
X42402843Y-86247500D01*
X42402843Y-85952500D01*
X42401000Y-85933784D01*
X42471185Y-85876185D01*
X42550537Y-85779494D01*
X42609502Y-85669180D01*
X42645812Y-85549482D01*
X42658072Y-85425000D01*
X42655000Y-85415750D01*
X42496250Y-85257000D01*
X41827000Y-85257000D01*
X41827000Y-85277000D01*
X41573000Y-85277000D01*
X41573000Y-85257000D01*
X41560990Y-85257000D01*
X41560990Y-85003000D01*
X41573000Y-85003000D01*
X41573000Y-84358750D01*
X41827000Y-84358750D01*
X41827000Y-85003000D01*
X42496250Y-85003000D01*
X42655000Y-84844250D01*
X42658072Y-84835000D01*
X42645812Y-84710518D01*
X42609502Y-84590820D01*
X42550537Y-84480506D01*
X42471185Y-84383815D01*
X42374494Y-84304463D01*
X42264180Y-84245498D01*
X42144482Y-84209188D01*
X42020000Y-84196928D01*
X41985750Y-84200000D01*
X41827000Y-84358750D01*
X41573000Y-84358750D01*
X41560990Y-84346740D01*
X41560990Y-82320343D01*
X41856250Y-82320343D01*
X41973615Y-82308784D01*
X42086470Y-82274549D01*
X42190477Y-82218956D01*
X42281640Y-82144140D01*
X42356456Y-82052977D01*
X42412049Y-81948970D01*
X42446284Y-81836115D01*
X42457843Y-81718750D01*
X42457843Y-81281250D01*
X42446284Y-81163885D01*
X42412049Y-81051030D01*
X42356456Y-80947023D01*
X42347930Y-80936634D01*
X42429494Y-80893037D01*
X42526185Y-80813685D01*
X42605537Y-80716994D01*
X42664502Y-80606680D01*
X42700812Y-80486982D01*
X42713072Y-80362500D01*
X42710000Y-80210750D01*
X42551250Y-80052000D01*
X41727000Y-80052000D01*
X41727000Y-80072000D01*
X41473000Y-80072000D01*
X41473000Y-80052000D01*
X40648750Y-80052000D01*
X40490000Y-80210750D01*
X40486928Y-80362500D01*
X40499188Y-80486982D01*
X40535498Y-80606680D01*
X40594463Y-80716994D01*
X40673815Y-80813685D01*
X40770506Y-80893037D01*
X40852070Y-80936634D01*
X40843544Y-80947023D01*
X40787951Y-81051030D01*
X40753716Y-81163885D01*
X40742157Y-81281250D01*
X40742157Y-81642252D01*
X40714770Y-81669639D01*
X40695464Y-81685483D01*
X40632232Y-81762531D01*
X40618900Y-81787473D01*
X40585245Y-81850436D01*
X40556312Y-81945818D01*
X40546543Y-82045010D01*
X40548991Y-82069866D01*
X40548991Y-84365601D01*
X40474494Y-84304463D01*
X40364180Y-84245498D01*
X40244482Y-84209188D01*
X40120000Y-84196928D01*
X40085750Y-84200000D01*
X39927000Y-84358750D01*
X39927000Y-85003000D01*
X39947000Y-85003000D01*
X39947000Y-85257000D01*
X39927000Y-85257000D01*
X39927000Y-85277000D01*
X39673000Y-85277000D01*
X39673000Y-85257000D01*
X39653000Y-85257000D01*
X39653000Y-85003000D01*
X39673000Y-85003000D01*
X39673000Y-84358750D01*
X39606000Y-84291750D01*
X39606000Y-82320343D01*
X39756250Y-82320343D01*
X39873615Y-82308784D01*
X39986470Y-82274549D01*
X40090477Y-82218956D01*
X40181640Y-82144140D01*
X40256456Y-82052977D01*
X40312049Y-81948970D01*
X40346284Y-81836115D01*
X40357843Y-81718750D01*
X40357843Y-81281250D01*
X40346284Y-81163885D01*
X40312049Y-81051030D01*
X40256456Y-80947023D01*
X40181640Y-80855860D01*
X40090477Y-80781044D01*
X39986470Y-80725451D01*
X39943777Y-80712500D01*
X39986470Y-80699549D01*
X40090477Y-80643956D01*
X40181640Y-80569140D01*
X40256456Y-80477977D01*
X40312049Y-80373970D01*
X40346284Y-80261115D01*
X40357843Y-80143750D01*
X40357843Y-79706250D01*
X40346284Y-79588885D01*
X40315529Y-79487500D01*
X40486928Y-79487500D01*
X40490000Y-79639250D01*
X40648750Y-79798000D01*
X41473000Y-79798000D01*
X41473000Y-79011250D01*
X41727000Y-79011250D01*
X41727000Y-79798000D01*
X42551250Y-79798000D01*
X42710000Y-79639250D01*
X42713072Y-79487500D01*
X42700812Y-79363018D01*
X42664502Y-79243320D01*
X42605537Y-79133006D01*
X42526185Y-79036315D01*
X42429494Y-78956963D01*
X42319180Y-78897998D01*
X42199482Y-78861688D01*
X42075000Y-78849428D01*
X41885750Y-78852500D01*
X41727000Y-79011250D01*
X41473000Y-79011250D01*
X41314250Y-78852500D01*
X41125000Y-78849428D01*
X41000518Y-78861688D01*
X40880820Y-78897998D01*
X40770506Y-78956963D01*
X40673815Y-79036315D01*
X40594463Y-79133006D01*
X40535498Y-79243320D01*
X40499188Y-79363018D01*
X40486928Y-79487500D01*
X40315529Y-79487500D01*
X40312049Y-79476030D01*
X40256456Y-79372023D01*
X40181640Y-79280860D01*
X40090477Y-79206044D01*
X39986470Y-79150451D01*
X39873615Y-79116216D01*
X39756250Y-79104657D01*
X39243750Y-79104657D01*
X39126385Y-79116216D01*
X39013530Y-79150451D01*
X38909523Y-79206044D01*
X38818360Y-79280860D01*
X38743544Y-79372023D01*
X38687951Y-79476030D01*
X38653716Y-79588885D01*
X38642157Y-79706250D01*
X38642157Y-80067252D01*
X38309770Y-80399639D01*
X38290464Y-80415483D01*
X38227232Y-80492531D01*
X38206962Y-80530453D01*
X38180245Y-80580436D01*
X38151312Y-80675818D01*
X38141543Y-80775010D01*
X38143991Y-80799866D01*
X38143991Y-80868399D01*
X37115376Y-79839785D01*
X37099527Y-79820473D01*
X37060506Y-79788449D01*
X37033464Y-79737857D01*
X36967509Y-79657491D01*
X36887143Y-79591536D01*
X36795453Y-79542527D01*
X36695965Y-79512347D01*
X36592500Y-79502157D01*
X36247500Y-79502157D01*
X36144035Y-79512347D01*
X36044547Y-79542527D01*
X35952857Y-79591536D01*
X35872491Y-79657491D01*
X35806536Y-79737857D01*
X35757527Y-79829547D01*
X35727347Y-79929035D01*
X35717157Y-80032500D01*
X35717157Y-80327500D01*
X35727347Y-80430965D01*
X35757527Y-80530453D01*
X35806536Y-80622143D01*
X35841708Y-80665000D01*
X35806536Y-80707857D01*
X35757527Y-80799547D01*
X35727347Y-80899035D01*
X35719034Y-80983442D01*
X34575376Y-79839785D01*
X34559527Y-79820473D01*
X34520506Y-79788449D01*
X34493464Y-79737857D01*
X34427509Y-79657491D01*
X34347143Y-79591536D01*
X34255453Y-79542527D01*
X34155965Y-79512347D01*
X34052500Y-79502157D01*
X33707500Y-79502157D01*
X33604035Y-79512347D01*
X33504547Y-79542527D01*
X33412857Y-79591536D01*
X33332491Y-79657491D01*
X33266536Y-79737857D01*
X33217527Y-79829547D01*
X33187347Y-79929035D01*
X33177157Y-80032500D01*
X33177157Y-80327500D01*
X33187347Y-80430965D01*
X33217527Y-80530453D01*
X33266536Y-80622143D01*
X33301708Y-80665000D01*
X33266536Y-80707857D01*
X33217527Y-80799547D01*
X33187347Y-80899035D01*
X33177241Y-81001649D01*
X32035376Y-79859785D01*
X32019527Y-79840473D01*
X31980506Y-79808449D01*
X31953464Y-79757857D01*
X31887509Y-79677491D01*
X31807143Y-79611536D01*
X31715453Y-79562527D01*
X31615965Y-79532347D01*
X31512500Y-79522157D01*
X31167500Y-79522157D01*
X31064035Y-79532347D01*
X30964547Y-79562527D01*
X30872857Y-79611536D01*
X30792491Y-79677491D01*
X30726536Y-79757857D01*
X30677527Y-79849547D01*
X30647347Y-79949035D01*
X30637157Y-80052500D01*
X30637157Y-80347500D01*
X30647347Y-80450965D01*
X30677527Y-80550453D01*
X30726536Y-80642143D01*
X30761708Y-80685000D01*
X30726536Y-80727857D01*
X30677527Y-80819547D01*
X30647347Y-80919035D01*
X30637157Y-81022500D01*
X30637157Y-81121566D01*
X30606000Y-81090409D01*
X30606000Y-77659591D01*
X34732749Y-73532843D01*
X35450000Y-73532843D01*
X35524689Y-73525487D01*
X35596508Y-73503701D01*
X35662696Y-73468322D01*
X35720711Y-73420711D01*
X35768322Y-73362696D01*
X35803701Y-73296508D01*
X35825487Y-73224689D01*
X35832843Y-73150000D01*
X35832843Y-71950000D01*
X35825487Y-71875311D01*
X35803701Y-71803492D01*
X35768322Y-71737304D01*
X35720711Y-71679289D01*
X35662696Y-71631678D01*
X35596508Y-71596299D01*
X35524689Y-71574513D01*
X35450000Y-71567157D01*
X34550000Y-71567157D01*
X34475311Y-71574513D01*
X34403492Y-71596299D01*
X34337304Y-71631678D01*
X34279289Y-71679289D01*
X34231678Y-71737304D01*
X34196299Y-71803492D01*
X34174513Y-71875311D01*
X34167157Y-71950000D01*
X34167157Y-72667251D01*
X29759781Y-77074628D01*
X29740474Y-77090473D01*
X29677242Y-77167521D01*
X29652127Y-77214508D01*
X29630255Y-77255426D01*
X29601322Y-77350808D01*
X29591553Y-77450000D01*
X29594001Y-77474856D01*
X29594000Y-79461616D01*
X29571185Y-79433815D01*
X29474494Y-79354463D01*
X29364180Y-79295498D01*
X29244482Y-79259188D01*
X29120000Y-79246928D01*
X29085750Y-79250000D01*
X28927000Y-79408750D01*
X28927000Y-80053000D01*
X28947000Y-80053000D01*
X28947000Y-80307000D01*
X28927000Y-80307000D01*
X28927000Y-80327000D01*
X28673000Y-80327000D01*
X28673000Y-80307000D01*
X28003750Y-80307000D01*
X27845000Y-80465750D01*
X27841928Y-80475000D01*
X27854188Y-80599482D01*
X27890498Y-80719180D01*
X27949463Y-80829494D01*
X28028815Y-80926185D01*
X28099000Y-80983784D01*
X28097157Y-81002500D01*
X28097157Y-81297500D01*
X28107347Y-81400965D01*
X28137527Y-81500453D01*
X28186536Y-81592143D01*
X28252491Y-81672509D01*
X28294001Y-81706575D01*
X28294000Y-82478409D01*
X26902843Y-81087252D01*
X26902843Y-80952500D01*
X26901000Y-80933784D01*
X26971185Y-80876185D01*
X27050537Y-80779494D01*
X27109502Y-80669180D01*
X27145812Y-80549482D01*
X27158072Y-80425000D01*
X27155000Y-80415750D01*
X26996250Y-80257000D01*
X26327000Y-80257000D01*
X26327000Y-80277000D01*
X26073000Y-80277000D01*
X26073000Y-80257000D01*
X26053000Y-80257000D01*
X26053000Y-80003000D01*
X26073000Y-80003000D01*
X26073000Y-79358750D01*
X26327000Y-79358750D01*
X26327000Y-80003000D01*
X26996250Y-80003000D01*
X27114250Y-79885000D01*
X27841928Y-79885000D01*
X27845000Y-79894250D01*
X28003750Y-80053000D01*
X28673000Y-80053000D01*
X28673000Y-79408750D01*
X28514250Y-79250000D01*
X28480000Y-79246928D01*
X28355518Y-79259188D01*
X28235820Y-79295498D01*
X28125506Y-79354463D01*
X28028815Y-79433815D01*
X27949463Y-79530506D01*
X27890498Y-79640820D01*
X27854188Y-79760518D01*
X27841928Y-79885000D01*
X27114250Y-79885000D01*
X27155000Y-79844250D01*
X27158072Y-79835000D01*
X27145812Y-79710518D01*
X27109502Y-79590820D01*
X27050537Y-79480506D01*
X26971185Y-79383815D01*
X26874494Y-79304463D01*
X26764180Y-79245498D01*
X26644482Y-79209188D01*
X26520000Y-79196928D01*
X26485750Y-79200000D01*
X26327000Y-79358750D01*
X26073000Y-79358750D01*
X25914250Y-79200000D01*
X25880000Y-79196928D01*
X25755518Y-79209188D01*
X25635820Y-79245498D01*
X25525506Y-79304463D01*
X25428815Y-79383815D01*
X25406000Y-79411615D01*
X25406000Y-73168020D01*
X25497859Y-73106642D01*
X25606642Y-72997859D01*
X25692113Y-72869942D01*
X25750987Y-72727809D01*
X25777737Y-72593328D01*
X28819000Y-75634592D01*
X28819000Y-75776922D01*
X28849013Y-75927809D01*
X28907887Y-76069942D01*
X28993358Y-76197859D01*
X29102141Y-76306642D01*
X29230058Y-76392113D01*
X29372191Y-76450987D01*
X29523078Y-76481000D01*
X29676922Y-76481000D01*
X29827809Y-76450987D01*
X29969942Y-76392113D01*
X30097859Y-76306642D01*
X30206642Y-76197859D01*
X30292113Y-76069942D01*
X30350987Y-75927809D01*
X30381000Y-75776922D01*
X30381000Y-75623078D01*
X30350987Y-75472191D01*
X30292113Y-75330058D01*
X30206642Y-75202141D01*
X30129270Y-75124769D01*
X30230058Y-75192113D01*
X30372191Y-75250987D01*
X30523078Y-75281000D01*
X30676922Y-75281000D01*
X30827809Y-75250987D01*
X30969942Y-75192113D01*
X31097859Y-75106642D01*
X31206642Y-74997859D01*
X31292113Y-74869942D01*
X31350987Y-74727809D01*
X31381000Y-74576922D01*
X31381000Y-74423078D01*
X31350987Y-74272191D01*
X31292113Y-74130058D01*
X31206642Y-74002141D01*
X31097859Y-73893358D01*
X30969942Y-73807887D01*
X30827809Y-73749013D01*
X30676922Y-73719000D01*
X30534592Y-73719000D01*
X29965592Y-73150000D01*
X30611928Y-73150000D01*
X30624188Y-73274482D01*
X30660498Y-73394180D01*
X30719463Y-73504494D01*
X30798815Y-73601185D01*
X30895506Y-73680537D01*
X31005820Y-73739502D01*
X31125518Y-73775812D01*
X31250000Y-73788072D01*
X31414250Y-73785000D01*
X31573000Y-73626250D01*
X31573000Y-72677000D01*
X31827000Y-72677000D01*
X31827000Y-73626250D01*
X31985750Y-73785000D01*
X32150000Y-73788072D01*
X32274482Y-73775812D01*
X32394180Y-73739502D01*
X32504494Y-73680537D01*
X32601185Y-73601185D01*
X32680537Y-73504494D01*
X32739502Y-73394180D01*
X32775812Y-73274482D01*
X32788072Y-73150000D01*
X32785000Y-72835750D01*
X32626250Y-72677000D01*
X31827000Y-72677000D01*
X31573000Y-72677000D01*
X30773750Y-72677000D01*
X30615000Y-72835750D01*
X30611928Y-73150000D01*
X29965592Y-73150000D01*
X28765592Y-71950000D01*
X30611928Y-71950000D01*
X30615000Y-72264250D01*
X30773750Y-72423000D01*
X31573000Y-72423000D01*
X31573000Y-71473750D01*
X31827000Y-71473750D01*
X31827000Y-72423000D01*
X32626250Y-72423000D01*
X32785000Y-72264250D01*
X32788072Y-71950000D01*
X32775812Y-71825518D01*
X32739502Y-71705820D01*
X32680537Y-71595506D01*
X32601185Y-71498815D01*
X32504494Y-71419463D01*
X32394180Y-71360498D01*
X32274482Y-71324188D01*
X32150000Y-71311928D01*
X31985750Y-71315000D01*
X31827000Y-71473750D01*
X31573000Y-71473750D01*
X31414250Y-71315000D01*
X31250000Y-71311928D01*
X31125518Y-71324188D01*
X31005820Y-71360498D01*
X30895506Y-71419463D01*
X30798815Y-71498815D01*
X30719463Y-71595506D01*
X30660498Y-71705820D01*
X30624188Y-71825518D01*
X30611928Y-71950000D01*
X28765592Y-71950000D01*
X27505800Y-70690209D01*
X27505800Y-66410473D01*
X27511845Y-66407969D01*
X27566770Y-66371269D01*
X28798136Y-66371269D01*
X28857597Y-66605037D01*
X29096042Y-66715934D01*
X29351540Y-66778183D01*
X29614273Y-66789390D01*
X29874144Y-66749125D01*
X30121166Y-66658935D01*
X30222003Y-66605037D01*
X30281464Y-66371269D01*
X29539800Y-65629605D01*
X28798136Y-66371269D01*
X27566770Y-66371269D01*
X27688897Y-66289667D01*
X27839467Y-66139097D01*
X27957769Y-65962045D01*
X28039257Y-65765316D01*
X28080800Y-65556469D01*
X28080800Y-65524473D01*
X28200410Y-65524473D01*
X28240675Y-65784344D01*
X28330865Y-66031366D01*
X28384763Y-66132203D01*
X28618531Y-66191664D01*
X29360195Y-65450000D01*
X29719405Y-65450000D01*
X30461069Y-66191664D01*
X30694837Y-66132203D01*
X30805734Y-65893758D01*
X30867983Y-65638260D01*
X30879190Y-65375527D01*
X30874233Y-65343531D01*
X30998800Y-65343531D01*
X30998800Y-65556469D01*
X31040343Y-65765316D01*
X31121831Y-65962045D01*
X31240133Y-66139097D01*
X31390703Y-66289667D01*
X31567755Y-66407969D01*
X31764484Y-66489457D01*
X31973331Y-66531000D01*
X32186269Y-66531000D01*
X32395116Y-66489457D01*
X32591845Y-66407969D01*
X32768897Y-66289667D01*
X32919467Y-66139097D01*
X33037769Y-65962045D01*
X33119257Y-65765316D01*
X33160800Y-65556469D01*
X33160800Y-65343531D01*
X33538800Y-65343531D01*
X33538800Y-65556469D01*
X33580343Y-65765316D01*
X33661831Y-65962045D01*
X33780133Y-66139097D01*
X33930703Y-66289667D01*
X34107755Y-66407969D01*
X34194001Y-66443693D01*
X34194000Y-68601499D01*
X34093358Y-68702141D01*
X34007887Y-68830058D01*
X33949013Y-68972191D01*
X33919000Y-69123078D01*
X33919000Y-69276922D01*
X33949013Y-69427809D01*
X34007887Y-69569942D01*
X34093358Y-69697859D01*
X34202141Y-69806642D01*
X34330058Y-69892113D01*
X34472191Y-69950987D01*
X34623078Y-69981000D01*
X34776922Y-69981000D01*
X34927809Y-69950987D01*
X35069942Y-69892113D01*
X35197859Y-69806642D01*
X35306642Y-69697859D01*
X35392113Y-69569942D01*
X35450987Y-69427809D01*
X35481000Y-69276922D01*
X35481000Y-69123078D01*
X35450987Y-68972191D01*
X35392113Y-68830058D01*
X35306642Y-68702141D01*
X35206000Y-68601499D01*
X35206000Y-66358420D01*
X35308897Y-66289667D01*
X35459467Y-66139097D01*
X35577769Y-65962045D01*
X35659257Y-65765316D01*
X35700800Y-65556469D01*
X35700800Y-65343531D01*
X36078800Y-65343531D01*
X36078800Y-65556469D01*
X36120343Y-65765316D01*
X36201831Y-65962045D01*
X36320133Y-66139097D01*
X36470703Y-66289667D01*
X36647755Y-66407969D01*
X36844484Y-66489457D01*
X37053331Y-66531000D01*
X37266269Y-66531000D01*
X37475116Y-66489457D01*
X37671845Y-66407969D01*
X37848897Y-66289667D01*
X37999467Y-66139097D01*
X38117769Y-65962045D01*
X38199257Y-65765316D01*
X38240800Y-65556469D01*
X38240800Y-65343531D01*
X38618800Y-65343531D01*
X38618800Y-65556469D01*
X38660343Y-65765316D01*
X38741831Y-65962045D01*
X38860133Y-66139097D01*
X39010703Y-66289667D01*
X39187755Y-66407969D01*
X39384484Y-66489457D01*
X39593331Y-66531000D01*
X39806269Y-66531000D01*
X40015116Y-66489457D01*
X40211845Y-66407969D01*
X40388897Y-66289667D01*
X40539467Y-66139097D01*
X40657769Y-65962045D01*
X40739257Y-65765316D01*
X40780800Y-65556469D01*
X40780800Y-65343531D01*
X40739257Y-65134684D01*
X40657769Y-64937955D01*
X40539467Y-64760903D01*
X40388897Y-64610333D01*
X40211845Y-64492031D01*
X40015116Y-64410543D01*
X39806269Y-64369000D01*
X39593331Y-64369000D01*
X39384484Y-64410543D01*
X39187755Y-64492031D01*
X39010703Y-64610333D01*
X38860133Y-64760903D01*
X38741831Y-64937955D01*
X38660343Y-65134684D01*
X38618800Y-65343531D01*
X38240800Y-65343531D01*
X38199257Y-65134684D01*
X38117769Y-64937955D01*
X37999467Y-64760903D01*
X37848897Y-64610333D01*
X37671845Y-64492031D01*
X37475116Y-64410543D01*
X37266269Y-64369000D01*
X37053331Y-64369000D01*
X36844484Y-64410543D01*
X36647755Y-64492031D01*
X36470703Y-64610333D01*
X36320133Y-64760903D01*
X36201831Y-64937955D01*
X36120343Y-65134684D01*
X36078800Y-65343531D01*
X35700800Y-65343531D01*
X35659257Y-65134684D01*
X35577769Y-64937955D01*
X35459467Y-64760903D01*
X35308897Y-64610333D01*
X35131845Y-64492031D01*
X34935116Y-64410543D01*
X34726269Y-64369000D01*
X34513331Y-64369000D01*
X34304484Y-64410543D01*
X34107755Y-64492031D01*
X33930703Y-64610333D01*
X33780133Y-64760903D01*
X33661831Y-64937955D01*
X33580343Y-65134684D01*
X33538800Y-65343531D01*
X33160800Y-65343531D01*
X33119257Y-65134684D01*
X33037769Y-64937955D01*
X32919467Y-64760903D01*
X32768897Y-64610333D01*
X32591845Y-64492031D01*
X32395116Y-64410543D01*
X32186269Y-64369000D01*
X31973331Y-64369000D01*
X31764484Y-64410543D01*
X31567755Y-64492031D01*
X31390703Y-64610333D01*
X31240133Y-64760903D01*
X31121831Y-64937955D01*
X31040343Y-65134684D01*
X30998800Y-65343531D01*
X30874233Y-65343531D01*
X30838925Y-65115656D01*
X30748735Y-64868634D01*
X30694837Y-64767797D01*
X30461069Y-64708336D01*
X29719405Y-65450000D01*
X29360195Y-65450000D01*
X28618531Y-64708336D01*
X28384763Y-64767797D01*
X28273866Y-65006242D01*
X28211617Y-65261740D01*
X28200410Y-65524473D01*
X28080800Y-65524473D01*
X28080800Y-65343531D01*
X28039257Y-65134684D01*
X27957769Y-64937955D01*
X27839467Y-64760903D01*
X27688897Y-64610333D01*
X27566771Y-64528731D01*
X28798136Y-64528731D01*
X29539800Y-65270395D01*
X30281464Y-64528731D01*
X30222003Y-64294963D01*
X29983558Y-64184066D01*
X29728060Y-64121817D01*
X29465327Y-64110610D01*
X29205456Y-64150875D01*
X28958434Y-64241065D01*
X28857597Y-64294963D01*
X28798136Y-64528731D01*
X27566771Y-64528731D01*
X27511845Y-64492031D01*
X27315116Y-64410543D01*
X27106269Y-64369000D01*
X26893331Y-64369000D01*
X26684484Y-64410543D01*
X26487755Y-64492031D01*
X26310703Y-64610333D01*
X26160133Y-64760903D01*
X26041831Y-64937955D01*
X25960343Y-65134684D01*
X25918800Y-65343531D01*
X25918800Y-65556469D01*
X25960343Y-65765316D01*
X26041831Y-65962045D01*
X26160133Y-66139097D01*
X26310703Y-66289667D01*
X26487755Y-66407969D01*
X26493801Y-66410473D01*
X26493800Y-70874954D01*
X26491353Y-70899800D01*
X26493800Y-70924646D01*
X26493800Y-70924653D01*
X26501122Y-70998992D01*
X26530055Y-71094374D01*
X26577041Y-71182279D01*
X26640273Y-71259327D01*
X26659585Y-71275176D01*
X29819000Y-74434592D01*
X29819000Y-74576922D01*
X29849013Y-74727809D01*
X29907887Y-74869942D01*
X29993358Y-74997859D01*
X30070730Y-75075231D01*
X29969942Y-75007887D01*
X29827809Y-74949013D01*
X29676922Y-74919000D01*
X29534592Y-74919000D01*
X24965800Y-70350209D01*
X24965800Y-66410473D01*
X24971845Y-66407969D01*
X25148897Y-66289667D01*
X25299467Y-66139097D01*
X25417769Y-65962045D01*
X25499257Y-65765316D01*
X25540800Y-65556469D01*
X25540800Y-65343531D01*
X25499257Y-65134684D01*
X25417769Y-64937955D01*
X25299467Y-64760903D01*
X25148897Y-64610333D01*
X24971845Y-64492031D01*
X24775116Y-64410543D01*
X24566269Y-64369000D01*
X24353331Y-64369000D01*
X24144484Y-64410543D01*
X23956000Y-64488616D01*
X23956000Y-63869854D01*
X23965413Y-63773852D01*
X23987528Y-63700603D01*
X24023452Y-63633039D01*
X24071811Y-63573746D01*
X24130767Y-63524973D01*
X24198074Y-63488580D01*
X24271167Y-63465955D01*
X24365877Y-63456000D01*
X42330146Y-63456000D01*
X42426148Y-63465413D01*
G04 #@! TA.AperFunction,Conductor*
D17*
G36*
X42426148Y-63465413D02*
G01*
X42499397Y-63487528D01*
X42566961Y-63523452D01*
X42626254Y-63571811D01*
X42675027Y-63630767D01*
X42711420Y-63698074D01*
X42734045Y-63771167D01*
X42744001Y-63865886D01*
X42744001Y-64488782D01*
X42555116Y-64410543D01*
X42346269Y-64369000D01*
X42133331Y-64369000D01*
X41924484Y-64410543D01*
X41727755Y-64492031D01*
X41550703Y-64610333D01*
X41400133Y-64760903D01*
X41281831Y-64937955D01*
X41200343Y-65134684D01*
X41158800Y-65343531D01*
X41158800Y-65556469D01*
X41200343Y-65765316D01*
X41281831Y-65962045D01*
X41400133Y-66139097D01*
X41550703Y-66289667D01*
X41727755Y-66407969D01*
X41924484Y-66489457D01*
X42133331Y-66531000D01*
X42346269Y-66531000D01*
X42555116Y-66489457D01*
X42744001Y-66411218D01*
X42744000Y-92545538D01*
X42674689Y-92524513D01*
X42600000Y-92517157D01*
X41600000Y-92517157D01*
X41525311Y-92524513D01*
X41453492Y-92546299D01*
X41387304Y-92581678D01*
X41329289Y-92629289D01*
X41281678Y-92687304D01*
X41246299Y-92753492D01*
X41224513Y-92825311D01*
X41217157Y-92900000D01*
X41217157Y-94400000D01*
X41224513Y-94474689D01*
X41246299Y-94546508D01*
X41281678Y-94612696D01*
X41329289Y-94670711D01*
X41387304Y-94718322D01*
X41453492Y-94753701D01*
X41525311Y-94775487D01*
X41600000Y-94782843D01*
X42600000Y-94782843D01*
X42674689Y-94775487D01*
X42744000Y-94754462D01*
X42744000Y-100830146D01*
X42734587Y-100926148D01*
X42712471Y-100999401D01*
X42676548Y-101066961D01*
X42628190Y-101126254D01*
X42569232Y-101175027D01*
X42501924Y-101211421D01*
X42428837Y-101234045D01*
X42334123Y-101244000D01*
X41775024Y-101244000D01*
X40901582Y-99846493D01*
X40889210Y-99823347D01*
X40867745Y-99797192D01*
X40847122Y-99770442D01*
X40842429Y-99766345D01*
X40838474Y-99761526D01*
X40812336Y-99740075D01*
X40786875Y-99717848D01*
X40781472Y-99714745D01*
X40776653Y-99710790D01*
X40746826Y-99694847D01*
X40717523Y-99678018D01*
X40711620Y-99676029D01*
X40706121Y-99673090D01*
X40673752Y-99663271D01*
X40641734Y-99652484D01*
X40635557Y-99651685D01*
X40629590Y-99649875D01*
X40595941Y-99646561D01*
X40562420Y-99642225D01*
X40536251Y-99644000D01*
X30063744Y-99644000D01*
X30037579Y-99642225D01*
X30004055Y-99646561D01*
X29970410Y-99649875D01*
X29964444Y-99651685D01*
X29958265Y-99652484D01*
X29926238Y-99663274D01*
X29893879Y-99673090D01*
X29888382Y-99676028D01*
X29882476Y-99678018D01*
X29853160Y-99694855D01*
X29823347Y-99710790D01*
X29818530Y-99714743D01*
X29813124Y-99717848D01*
X29787656Y-99740082D01*
X29761526Y-99761526D01*
X29757571Y-99766345D01*
X29752877Y-99770443D01*
X29732245Y-99797205D01*
X29710790Y-99823347D01*
X29698424Y-99846482D01*
X28824976Y-101244000D01*
X24369854Y-101244000D01*
X24273852Y-101234587D01*
X24200599Y-101212471D01*
X24133039Y-101176548D01*
X24073746Y-101128190D01*
X24024973Y-101069232D01*
X23988579Y-101001924D01*
X23965955Y-100928837D01*
X23956000Y-100834123D01*
X23956000Y-94754462D01*
X24025311Y-94775487D01*
X24100000Y-94782843D01*
X25100000Y-94782843D01*
X25174689Y-94775487D01*
X25246508Y-94753701D01*
X25312696Y-94718322D01*
X25370711Y-94670711D01*
X25418322Y-94612696D01*
X25453701Y-94546508D01*
X25475487Y-94474689D01*
X25482843Y-94400000D01*
X25482843Y-92900000D01*
X25475487Y-92825311D01*
X25453701Y-92753492D01*
X25418322Y-92687304D01*
X25370711Y-92629289D01*
X25312696Y-92581678D01*
X25246508Y-92546299D01*
X25174689Y-92524513D01*
X25100000Y-92517157D01*
X24100000Y-92517157D01*
X24025311Y-92524513D01*
X23956000Y-92545538D01*
X23956000Y-84025455D01*
X23990498Y-84139180D01*
X24049463Y-84249494D01*
X24128815Y-84346185D01*
X24225506Y-84425537D01*
X24335820Y-84484502D01*
X24455518Y-84520812D01*
X24580000Y-84533072D01*
X24614250Y-84530000D01*
X24773000Y-84371250D01*
X24773000Y-83727000D01*
X24753000Y-83727000D01*
X24753000Y-83473000D01*
X24773000Y-83473000D01*
X24773000Y-83453000D01*
X25027000Y-83453000D01*
X25027000Y-83473000D01*
X25047000Y-83473000D01*
X25047000Y-83727000D01*
X25027000Y-83727000D01*
X25027000Y-84050583D01*
X25016312Y-84085818D01*
X25006543Y-84185010D01*
X25008991Y-84209866D01*
X25008990Y-86368376D01*
X25006543Y-86393222D01*
X25008990Y-86418068D01*
X25008990Y-86418075D01*
X25016312Y-86492414D01*
X25045245Y-86587796D01*
X25092231Y-86675701D01*
X25155463Y-86752749D01*
X25174775Y-86768598D01*
X26594001Y-88187825D01*
X26594000Y-89165000D01*
X26472998Y-89165000D01*
X26472998Y-89219748D01*
X26418250Y-89165000D01*
X26315268Y-89176315D01*
X26196182Y-89214584D01*
X26086850Y-89275350D01*
X25991474Y-89356278D01*
X25942581Y-89417888D01*
X25875311Y-89424513D01*
X25803492Y-89446299D01*
X25737304Y-89481678D01*
X25679289Y-89529289D01*
X25631678Y-89587304D01*
X25596299Y-89653492D01*
X25574513Y-89725311D01*
X25567157Y-89800000D01*
X25567157Y-91100000D01*
X25574513Y-91174689D01*
X25596299Y-91246508D01*
X25631678Y-91312696D01*
X25679289Y-91370711D01*
X25737304Y-91418322D01*
X25803492Y-91453701D01*
X25875311Y-91475487D01*
X25942581Y-91482112D01*
X25991474Y-91543722D01*
X26086850Y-91624650D01*
X26196182Y-91685416D01*
X26315268Y-91723685D01*
X26418250Y-91735000D01*
X26577000Y-91576250D01*
X26577000Y-91296461D01*
X26600000Y-91253432D01*
X26623000Y-91296461D01*
X26623000Y-91576250D01*
X26781750Y-91735000D01*
X26884732Y-91723685D01*
X27003818Y-91685416D01*
X27094000Y-91635293D01*
X27094001Y-93801498D01*
X26993358Y-93902141D01*
X26907887Y-94030058D01*
X26849013Y-94172191D01*
X26819000Y-94323078D01*
X26819000Y-94476922D01*
X26849013Y-94627809D01*
X26907887Y-94769942D01*
X26993358Y-94897859D01*
X27102141Y-95006642D01*
X27230058Y-95092113D01*
X27372191Y-95150987D01*
X27523078Y-95181000D01*
X27676922Y-95181000D01*
X27827809Y-95150987D01*
X27969942Y-95092113D01*
X28097859Y-95006642D01*
X28100002Y-95004500D01*
X28102144Y-95006642D01*
X28230061Y-95092113D01*
X28372194Y-95150987D01*
X28523081Y-95181000D01*
X28676925Y-95181000D01*
X28827812Y-95150987D01*
X28969945Y-95092113D01*
X29097862Y-95006642D01*
X29100005Y-95004500D01*
X29102147Y-95006642D01*
X29230064Y-95092113D01*
X29372197Y-95150987D01*
X29523084Y-95181000D01*
X29676928Y-95181000D01*
X29827815Y-95150987D01*
X29969948Y-95092113D01*
X30097865Y-95006642D01*
X30100008Y-95004500D01*
X30102150Y-95006642D01*
X30230067Y-95092113D01*
X30372200Y-95150987D01*
X30523087Y-95181000D01*
X30676931Y-95181000D01*
X30827818Y-95150987D01*
X30969951Y-95092113D01*
X31097868Y-95006642D01*
X31100011Y-95004500D01*
X31102153Y-95006642D01*
X31230070Y-95092113D01*
X31372203Y-95150987D01*
X31523090Y-95181000D01*
X31676934Y-95181000D01*
X31827821Y-95150987D01*
X31969954Y-95092113D01*
X32097871Y-95006642D01*
X32100014Y-95004500D01*
X32102156Y-95006642D01*
X32230073Y-95092113D01*
X32372206Y-95150987D01*
X32523093Y-95181000D01*
X32676937Y-95181000D01*
X32827824Y-95150987D01*
X32969957Y-95092113D01*
X33097874Y-95006642D01*
X33206657Y-94897859D01*
X33292128Y-94769942D01*
X33351002Y-94627809D01*
X33381015Y-94476922D01*
X33381015Y-94323078D01*
X33351002Y-94172191D01*
X33292128Y-94030058D01*
X33206657Y-93902141D01*
X33097874Y-93793358D01*
X32969957Y-93707887D01*
X32827824Y-93649013D01*
X32676937Y-93619000D01*
X32607606Y-93619000D01*
X30723605Y-91735000D01*
X30727002Y-91735000D01*
X30727002Y-91680252D01*
X30781750Y-91735000D01*
X30884732Y-91723685D01*
X31003818Y-91685416D01*
X31113150Y-91624650D01*
X31208526Y-91543722D01*
X31257419Y-91482112D01*
X31324689Y-91475487D01*
X31350000Y-91467809D01*
X31375311Y-91475487D01*
X31450000Y-91482843D01*
X31750000Y-91482843D01*
X31824689Y-91475487D01*
X31850000Y-91467809D01*
X31875311Y-91475487D01*
X31950000Y-91482843D01*
X32250000Y-91482843D01*
X32324689Y-91475487D01*
X32350000Y-91467809D01*
X32375311Y-91475487D01*
X32450000Y-91482843D01*
X32750000Y-91482843D01*
X32824689Y-91475487D01*
X32850000Y-91467809D01*
X32875311Y-91475487D01*
X32950000Y-91482843D01*
X33250000Y-91482843D01*
X33324689Y-91475487D01*
X33350000Y-91467809D01*
X33375311Y-91475487D01*
X33450000Y-91482843D01*
X33750000Y-91482843D01*
X33824689Y-91475487D01*
X33850000Y-91467809D01*
X33875311Y-91475487D01*
X33950000Y-91482843D01*
X34250000Y-91482843D01*
X34324689Y-91475487D01*
X34350000Y-91467809D01*
X34375311Y-91475487D01*
X34450000Y-91482843D01*
X34750000Y-91482843D01*
X34824689Y-91475487D01*
X34850000Y-91467809D01*
X34875311Y-91475487D01*
X34950000Y-91482843D01*
X35250000Y-91482843D01*
X35324689Y-91475487D01*
X35350000Y-91467809D01*
X35375311Y-91475487D01*
X35450000Y-91482843D01*
X35750000Y-91482843D01*
X35824689Y-91475487D01*
X35850000Y-91467809D01*
X35875311Y-91475487D01*
X35950000Y-91482843D01*
X36250000Y-91482843D01*
X36324689Y-91475487D01*
X36350000Y-91467809D01*
X36375311Y-91475487D01*
X36450000Y-91482843D01*
X36750000Y-91482843D01*
X36824689Y-91475487D01*
X36850000Y-91467809D01*
X36875311Y-91475487D01*
X36950000Y-91482843D01*
X37250000Y-91482843D01*
X37324689Y-91475487D01*
X37350000Y-91467809D01*
X37375311Y-91475487D01*
X37450000Y-91482843D01*
X37750000Y-91482843D01*
X37824689Y-91475487D01*
X37850000Y-91467809D01*
X37875311Y-91475487D01*
X37950000Y-91482843D01*
X38250000Y-91482843D01*
X38324689Y-91475487D01*
X38350000Y-91467809D01*
X38375311Y-91475487D01*
X38450000Y-91482843D01*
X38750000Y-91482843D01*
X38824689Y-91475487D01*
X38850000Y-91467809D01*
X38875311Y-91475487D01*
X38950000Y-91482843D01*
X39250000Y-91482843D01*
X39324689Y-91475487D01*
X39350000Y-91467809D01*
X39375311Y-91475487D01*
X39450000Y-91482843D01*
X39750000Y-91482843D01*
X39824689Y-91475487D01*
X39850000Y-91467809D01*
X39875311Y-91475487D01*
X39950000Y-91482843D01*
X40250000Y-91482843D01*
X40324689Y-91475487D01*
X40350000Y-91467809D01*
X40375311Y-91475487D01*
X40450000Y-91482843D01*
X40750000Y-91482843D01*
X40824689Y-91475487D01*
X40896508Y-91453701D01*
X40962696Y-91418322D01*
X41020711Y-91370711D01*
X41068322Y-91312696D01*
X41103701Y-91246508D01*
X41125487Y-91174689D01*
X41132843Y-91100000D01*
X41132843Y-89800000D01*
X41125487Y-89725311D01*
X41106000Y-89661071D01*
X41106000Y-89209591D01*
X42040220Y-88275372D01*
X42059527Y-88259527D01*
X42122759Y-88182479D01*
X42169745Y-88094575D01*
X42198678Y-87999193D01*
X42206000Y-87924854D01*
X42206000Y-87924853D01*
X42208448Y-87900000D01*
X42206000Y-87875146D01*
X42206000Y-86656575D01*
X42247509Y-86622509D01*
X42313464Y-86542143D01*
X42362473Y-86450453D01*
X42392653Y-86350965D01*
X42402843Y-86247500D01*
X42402843Y-85952500D01*
X42401000Y-85933784D01*
X42471185Y-85876185D01*
X42550537Y-85779494D01*
X42609502Y-85669180D01*
X42645812Y-85549482D01*
X42658072Y-85425000D01*
X42655000Y-85415750D01*
X42496250Y-85257000D01*
X41827000Y-85257000D01*
X41827000Y-85277000D01*
X41573000Y-85277000D01*
X41573000Y-85257000D01*
X41560990Y-85257000D01*
X41560990Y-85003000D01*
X41573000Y-85003000D01*
X41573000Y-84358750D01*
X41827000Y-84358750D01*
X41827000Y-85003000D01*
X42496250Y-85003000D01*
X42655000Y-84844250D01*
X42658072Y-84835000D01*
X42645812Y-84710518D01*
X42609502Y-84590820D01*
X42550537Y-84480506D01*
X42471185Y-84383815D01*
X42374494Y-84304463D01*
X42264180Y-84245498D01*
X42144482Y-84209188D01*
X42020000Y-84196928D01*
X41985750Y-84200000D01*
X41827000Y-84358750D01*
X41573000Y-84358750D01*
X41560990Y-84346740D01*
X41560990Y-82320343D01*
X41856250Y-82320343D01*
X41973615Y-82308784D01*
X42086470Y-82274549D01*
X42190477Y-82218956D01*
X42281640Y-82144140D01*
X42356456Y-82052977D01*
X42412049Y-81948970D01*
X42446284Y-81836115D01*
X42457843Y-81718750D01*
X42457843Y-81281250D01*
X42446284Y-81163885D01*
X42412049Y-81051030D01*
X42356456Y-80947023D01*
X42347930Y-80936634D01*
X42429494Y-80893037D01*
X42526185Y-80813685D01*
X42605537Y-80716994D01*
X42664502Y-80606680D01*
X42700812Y-80486982D01*
X42713072Y-80362500D01*
X42710000Y-80210750D01*
X42551250Y-80052000D01*
X41727000Y-80052000D01*
X41727000Y-80072000D01*
X41473000Y-80072000D01*
X41473000Y-80052000D01*
X40648750Y-80052000D01*
X40490000Y-80210750D01*
X40486928Y-80362500D01*
X40499188Y-80486982D01*
X40535498Y-80606680D01*
X40594463Y-80716994D01*
X40673815Y-80813685D01*
X40770506Y-80893037D01*
X40852070Y-80936634D01*
X40843544Y-80947023D01*
X40787951Y-81051030D01*
X40753716Y-81163885D01*
X40742157Y-81281250D01*
X40742157Y-81642252D01*
X40714770Y-81669639D01*
X40695464Y-81685483D01*
X40632232Y-81762531D01*
X40618900Y-81787473D01*
X40585245Y-81850436D01*
X40556312Y-81945818D01*
X40546543Y-82045010D01*
X40548991Y-82069866D01*
X40548991Y-84365601D01*
X40474494Y-84304463D01*
X40364180Y-84245498D01*
X40244482Y-84209188D01*
X40120000Y-84196928D01*
X40085750Y-84200000D01*
X39927000Y-84358750D01*
X39927000Y-85003000D01*
X39947000Y-85003000D01*
X39947000Y-85257000D01*
X39927000Y-85257000D01*
X39927000Y-85277000D01*
X39673000Y-85277000D01*
X39673000Y-85257000D01*
X39653000Y-85257000D01*
X39653000Y-85003000D01*
X39673000Y-85003000D01*
X39673000Y-84358750D01*
X39606000Y-84291750D01*
X39606000Y-82320343D01*
X39756250Y-82320343D01*
X39873615Y-82308784D01*
X39986470Y-82274549D01*
X40090477Y-82218956D01*
X40181640Y-82144140D01*
X40256456Y-82052977D01*
X40312049Y-81948970D01*
X40346284Y-81836115D01*
X40357843Y-81718750D01*
X40357843Y-81281250D01*
X40346284Y-81163885D01*
X40312049Y-81051030D01*
X40256456Y-80947023D01*
X40181640Y-80855860D01*
X40090477Y-80781044D01*
X39986470Y-80725451D01*
X39943777Y-80712500D01*
X39986470Y-80699549D01*
X40090477Y-80643956D01*
X40181640Y-80569140D01*
X40256456Y-80477977D01*
X40312049Y-80373970D01*
X40346284Y-80261115D01*
X40357843Y-80143750D01*
X40357843Y-79706250D01*
X40346284Y-79588885D01*
X40315529Y-79487500D01*
X40486928Y-79487500D01*
X40490000Y-79639250D01*
X40648750Y-79798000D01*
X41473000Y-79798000D01*
X41473000Y-79011250D01*
X41727000Y-79011250D01*
X41727000Y-79798000D01*
X42551250Y-79798000D01*
X42710000Y-79639250D01*
X42713072Y-79487500D01*
X42700812Y-79363018D01*
X42664502Y-79243320D01*
X42605537Y-79133006D01*
X42526185Y-79036315D01*
X42429494Y-78956963D01*
X42319180Y-78897998D01*
X42199482Y-78861688D01*
X42075000Y-78849428D01*
X41885750Y-78852500D01*
X41727000Y-79011250D01*
X41473000Y-79011250D01*
X41314250Y-78852500D01*
X41125000Y-78849428D01*
X41000518Y-78861688D01*
X40880820Y-78897998D01*
X40770506Y-78956963D01*
X40673815Y-79036315D01*
X40594463Y-79133006D01*
X40535498Y-79243320D01*
X40499188Y-79363018D01*
X40486928Y-79487500D01*
X40315529Y-79487500D01*
X40312049Y-79476030D01*
X40256456Y-79372023D01*
X40181640Y-79280860D01*
X40090477Y-79206044D01*
X39986470Y-79150451D01*
X39873615Y-79116216D01*
X39756250Y-79104657D01*
X39243750Y-79104657D01*
X39126385Y-79116216D01*
X39013530Y-79150451D01*
X38909523Y-79206044D01*
X38818360Y-79280860D01*
X38743544Y-79372023D01*
X38687951Y-79476030D01*
X38653716Y-79588885D01*
X38642157Y-79706250D01*
X38642157Y-80067252D01*
X38309770Y-80399639D01*
X38290464Y-80415483D01*
X38227232Y-80492531D01*
X38206962Y-80530453D01*
X38180245Y-80580436D01*
X38151312Y-80675818D01*
X38141543Y-80775010D01*
X38143991Y-80799866D01*
X38143991Y-80868399D01*
X37115376Y-79839785D01*
X37099527Y-79820473D01*
X37060506Y-79788449D01*
X37033464Y-79737857D01*
X36967509Y-79657491D01*
X36887143Y-79591536D01*
X36795453Y-79542527D01*
X36695965Y-79512347D01*
X36592500Y-79502157D01*
X36247500Y-79502157D01*
X36144035Y-79512347D01*
X36044547Y-79542527D01*
X35952857Y-79591536D01*
X35872491Y-79657491D01*
X35806536Y-79737857D01*
X35757527Y-79829547D01*
X35727347Y-79929035D01*
X35717157Y-80032500D01*
X35717157Y-80327500D01*
X35727347Y-80430965D01*
X35757527Y-80530453D01*
X35806536Y-80622143D01*
X35841708Y-80665000D01*
X35806536Y-80707857D01*
X35757527Y-80799547D01*
X35727347Y-80899035D01*
X35719034Y-80983442D01*
X34575376Y-79839785D01*
X34559527Y-79820473D01*
X34520506Y-79788449D01*
X34493464Y-79737857D01*
X34427509Y-79657491D01*
X34347143Y-79591536D01*
X34255453Y-79542527D01*
X34155965Y-79512347D01*
X34052500Y-79502157D01*
X33707500Y-79502157D01*
X33604035Y-79512347D01*
X33504547Y-79542527D01*
X33412857Y-79591536D01*
X33332491Y-79657491D01*
X33266536Y-79737857D01*
X33217527Y-79829547D01*
X33187347Y-79929035D01*
X33177157Y-80032500D01*
X33177157Y-80327500D01*
X33187347Y-80430965D01*
X33217527Y-80530453D01*
X33266536Y-80622143D01*
X33301708Y-80665000D01*
X33266536Y-80707857D01*
X33217527Y-80799547D01*
X33187347Y-80899035D01*
X33177241Y-81001649D01*
X32035376Y-79859785D01*
X32019527Y-79840473D01*
X31980506Y-79808449D01*
X31953464Y-79757857D01*
X31887509Y-79677491D01*
X31807143Y-79611536D01*
X31715453Y-79562527D01*
X31615965Y-79532347D01*
X31512500Y-79522157D01*
X31167500Y-79522157D01*
X31064035Y-79532347D01*
X30964547Y-79562527D01*
X30872857Y-79611536D01*
X30792491Y-79677491D01*
X30726536Y-79757857D01*
X30677527Y-79849547D01*
X30647347Y-79949035D01*
X30637157Y-80052500D01*
X30637157Y-80347500D01*
X30647347Y-80450965D01*
X30677527Y-80550453D01*
X30726536Y-80642143D01*
X30761708Y-80685000D01*
X30726536Y-80727857D01*
X30677527Y-80819547D01*
X30647347Y-80919035D01*
X30637157Y-81022500D01*
X30637157Y-81121566D01*
X30606000Y-81090409D01*
X30606000Y-77659591D01*
X34732749Y-73532843D01*
X35450000Y-73532843D01*
X35524689Y-73525487D01*
X35596508Y-73503701D01*
X35662696Y-73468322D01*
X35720711Y-73420711D01*
X35768322Y-73362696D01*
X35803701Y-73296508D01*
X35825487Y-73224689D01*
X35832843Y-73150000D01*
X35832843Y-71950000D01*
X35825487Y-71875311D01*
X35803701Y-71803492D01*
X35768322Y-71737304D01*
X35720711Y-71679289D01*
X35662696Y-71631678D01*
X35596508Y-71596299D01*
X35524689Y-71574513D01*
X35450000Y-71567157D01*
X34550000Y-71567157D01*
X34475311Y-71574513D01*
X34403492Y-71596299D01*
X34337304Y-71631678D01*
X34279289Y-71679289D01*
X34231678Y-71737304D01*
X34196299Y-71803492D01*
X34174513Y-71875311D01*
X34167157Y-71950000D01*
X34167157Y-72667251D01*
X29759781Y-77074628D01*
X29740474Y-77090473D01*
X29677242Y-77167521D01*
X29652127Y-77214508D01*
X29630255Y-77255426D01*
X29601322Y-77350808D01*
X29591553Y-77450000D01*
X29594001Y-77474856D01*
X29594000Y-79461616D01*
X29571185Y-79433815D01*
X29474494Y-79354463D01*
X29364180Y-79295498D01*
X29244482Y-79259188D01*
X29120000Y-79246928D01*
X29085750Y-79250000D01*
X28927000Y-79408750D01*
X28927000Y-80053000D01*
X28947000Y-80053000D01*
X28947000Y-80307000D01*
X28927000Y-80307000D01*
X28927000Y-80327000D01*
X28673000Y-80327000D01*
X28673000Y-80307000D01*
X28003750Y-80307000D01*
X27845000Y-80465750D01*
X27841928Y-80475000D01*
X27854188Y-80599482D01*
X27890498Y-80719180D01*
X27949463Y-80829494D01*
X28028815Y-80926185D01*
X28099000Y-80983784D01*
X28097157Y-81002500D01*
X28097157Y-81297500D01*
X28107347Y-81400965D01*
X28137527Y-81500453D01*
X28186536Y-81592143D01*
X28252491Y-81672509D01*
X28294001Y-81706575D01*
X28294000Y-82478409D01*
X26902843Y-81087252D01*
X26902843Y-80952500D01*
X26901000Y-80933784D01*
X26971185Y-80876185D01*
X27050537Y-80779494D01*
X27109502Y-80669180D01*
X27145812Y-80549482D01*
X27158072Y-80425000D01*
X27155000Y-80415750D01*
X26996250Y-80257000D01*
X26327000Y-80257000D01*
X26327000Y-80277000D01*
X26073000Y-80277000D01*
X26073000Y-80257000D01*
X26053000Y-80257000D01*
X26053000Y-80003000D01*
X26073000Y-80003000D01*
X26073000Y-79358750D01*
X26327000Y-79358750D01*
X26327000Y-80003000D01*
X26996250Y-80003000D01*
X27114250Y-79885000D01*
X27841928Y-79885000D01*
X27845000Y-79894250D01*
X28003750Y-80053000D01*
X28673000Y-80053000D01*
X28673000Y-79408750D01*
X28514250Y-79250000D01*
X28480000Y-79246928D01*
X28355518Y-79259188D01*
X28235820Y-79295498D01*
X28125506Y-79354463D01*
X28028815Y-79433815D01*
X27949463Y-79530506D01*
X27890498Y-79640820D01*
X27854188Y-79760518D01*
X27841928Y-79885000D01*
X27114250Y-79885000D01*
X27155000Y-79844250D01*
X27158072Y-79835000D01*
X27145812Y-79710518D01*
X27109502Y-79590820D01*
X27050537Y-79480506D01*
X26971185Y-79383815D01*
X26874494Y-79304463D01*
X26764180Y-79245498D01*
X26644482Y-79209188D01*
X26520000Y-79196928D01*
X26485750Y-79200000D01*
X26327000Y-79358750D01*
X26073000Y-79358750D01*
X25914250Y-79200000D01*
X25880000Y-79196928D01*
X25755518Y-79209188D01*
X25635820Y-79245498D01*
X25525506Y-79304463D01*
X25428815Y-79383815D01*
X25406000Y-79411615D01*
X25406000Y-73168020D01*
X25497859Y-73106642D01*
X25606642Y-72997859D01*
X25692113Y-72869942D01*
X25750987Y-72727809D01*
X25777737Y-72593328D01*
X28819000Y-75634592D01*
X28819000Y-75776922D01*
X28849013Y-75927809D01*
X28907887Y-76069942D01*
X28993358Y-76197859D01*
X29102141Y-76306642D01*
X29230058Y-76392113D01*
X29372191Y-76450987D01*
X29523078Y-76481000D01*
X29676922Y-76481000D01*
X29827809Y-76450987D01*
X29969942Y-76392113D01*
X30097859Y-76306642D01*
X30206642Y-76197859D01*
X30292113Y-76069942D01*
X30350987Y-75927809D01*
X30381000Y-75776922D01*
X30381000Y-75623078D01*
X30350987Y-75472191D01*
X30292113Y-75330058D01*
X30206642Y-75202141D01*
X30129270Y-75124769D01*
X30230058Y-75192113D01*
X30372191Y-75250987D01*
X30523078Y-75281000D01*
X30676922Y-75281000D01*
X30827809Y-75250987D01*
X30969942Y-75192113D01*
X31097859Y-75106642D01*
X31206642Y-74997859D01*
X31292113Y-74869942D01*
X31350987Y-74727809D01*
X31381000Y-74576922D01*
X31381000Y-74423078D01*
X31350987Y-74272191D01*
X31292113Y-74130058D01*
X31206642Y-74002141D01*
X31097859Y-73893358D01*
X30969942Y-73807887D01*
X30827809Y-73749013D01*
X30676922Y-73719000D01*
X30534592Y-73719000D01*
X29965592Y-73150000D01*
X30611928Y-73150000D01*
X30624188Y-73274482D01*
X30660498Y-73394180D01*
X30719463Y-73504494D01*
X30798815Y-73601185D01*
X30895506Y-73680537D01*
X31005820Y-73739502D01*
X31125518Y-73775812D01*
X31250000Y-73788072D01*
X31414250Y-73785000D01*
X31573000Y-73626250D01*
X31573000Y-72677000D01*
X31827000Y-72677000D01*
X31827000Y-73626250D01*
X31985750Y-73785000D01*
X32150000Y-73788072D01*
X32274482Y-73775812D01*
X32394180Y-73739502D01*
X32504494Y-73680537D01*
X32601185Y-73601185D01*
X32680537Y-73504494D01*
X32739502Y-73394180D01*
X32775812Y-73274482D01*
X32788072Y-73150000D01*
X32785000Y-72835750D01*
X32626250Y-72677000D01*
X31827000Y-72677000D01*
X31573000Y-72677000D01*
X30773750Y-72677000D01*
X30615000Y-72835750D01*
X30611928Y-73150000D01*
X29965592Y-73150000D01*
X28765592Y-71950000D01*
X30611928Y-71950000D01*
X30615000Y-72264250D01*
X30773750Y-72423000D01*
X31573000Y-72423000D01*
X31573000Y-71473750D01*
X31827000Y-71473750D01*
X31827000Y-72423000D01*
X32626250Y-72423000D01*
X32785000Y-72264250D01*
X32788072Y-71950000D01*
X32775812Y-71825518D01*
X32739502Y-71705820D01*
X32680537Y-71595506D01*
X32601185Y-71498815D01*
X32504494Y-71419463D01*
X32394180Y-71360498D01*
X32274482Y-71324188D01*
X32150000Y-71311928D01*
X31985750Y-71315000D01*
X31827000Y-71473750D01*
X31573000Y-71473750D01*
X31414250Y-71315000D01*
X31250000Y-71311928D01*
X31125518Y-71324188D01*
X31005820Y-71360498D01*
X30895506Y-71419463D01*
X30798815Y-71498815D01*
X30719463Y-71595506D01*
X30660498Y-71705820D01*
X30624188Y-71825518D01*
X30611928Y-71950000D01*
X28765592Y-71950000D01*
X27505800Y-70690209D01*
X27505800Y-66410473D01*
X27511845Y-66407969D01*
X27566770Y-66371269D01*
X28798136Y-66371269D01*
X28857597Y-66605037D01*
X29096042Y-66715934D01*
X29351540Y-66778183D01*
X29614273Y-66789390D01*
X29874144Y-66749125D01*
X30121166Y-66658935D01*
X30222003Y-66605037D01*
X30281464Y-66371269D01*
X29539800Y-65629605D01*
X28798136Y-66371269D01*
X27566770Y-66371269D01*
X27688897Y-66289667D01*
X27839467Y-66139097D01*
X27957769Y-65962045D01*
X28039257Y-65765316D01*
X28080800Y-65556469D01*
X28080800Y-65524473D01*
X28200410Y-65524473D01*
X28240675Y-65784344D01*
X28330865Y-66031366D01*
X28384763Y-66132203D01*
X28618531Y-66191664D01*
X29360195Y-65450000D01*
X29719405Y-65450000D01*
X30461069Y-66191664D01*
X30694837Y-66132203D01*
X30805734Y-65893758D01*
X30867983Y-65638260D01*
X30879190Y-65375527D01*
X30874233Y-65343531D01*
X30998800Y-65343531D01*
X30998800Y-65556469D01*
X31040343Y-65765316D01*
X31121831Y-65962045D01*
X31240133Y-66139097D01*
X31390703Y-66289667D01*
X31567755Y-66407969D01*
X31764484Y-66489457D01*
X31973331Y-66531000D01*
X32186269Y-66531000D01*
X32395116Y-66489457D01*
X32591845Y-66407969D01*
X32768897Y-66289667D01*
X32919467Y-66139097D01*
X33037769Y-65962045D01*
X33119257Y-65765316D01*
X33160800Y-65556469D01*
X33160800Y-65343531D01*
X33538800Y-65343531D01*
X33538800Y-65556469D01*
X33580343Y-65765316D01*
X33661831Y-65962045D01*
X33780133Y-66139097D01*
X33930703Y-66289667D01*
X34107755Y-66407969D01*
X34194001Y-66443693D01*
X34194000Y-68601499D01*
X34093358Y-68702141D01*
X34007887Y-68830058D01*
X33949013Y-68972191D01*
X33919000Y-69123078D01*
X33919000Y-69276922D01*
X33949013Y-69427809D01*
X34007887Y-69569942D01*
X34093358Y-69697859D01*
X34202141Y-69806642D01*
X34330058Y-69892113D01*
X34472191Y-69950987D01*
X34623078Y-69981000D01*
X34776922Y-69981000D01*
X34927809Y-69950987D01*
X35069942Y-69892113D01*
X35197859Y-69806642D01*
X35306642Y-69697859D01*
X35392113Y-69569942D01*
X35450987Y-69427809D01*
X35481000Y-69276922D01*
X35481000Y-69123078D01*
X35450987Y-68972191D01*
X35392113Y-68830058D01*
X35306642Y-68702141D01*
X35206000Y-68601499D01*
X35206000Y-66358420D01*
X35308897Y-66289667D01*
X35459467Y-66139097D01*
X35577769Y-65962045D01*
X35659257Y-65765316D01*
X35700800Y-65556469D01*
X35700800Y-65343531D01*
X36078800Y-65343531D01*
X36078800Y-65556469D01*
X36120343Y-65765316D01*
X36201831Y-65962045D01*
X36320133Y-66139097D01*
X36470703Y-66289667D01*
X36647755Y-66407969D01*
X36844484Y-66489457D01*
X37053331Y-66531000D01*
X37266269Y-66531000D01*
X37475116Y-66489457D01*
X37671845Y-66407969D01*
X37848897Y-66289667D01*
X37999467Y-66139097D01*
X38117769Y-65962045D01*
X38199257Y-65765316D01*
X38240800Y-65556469D01*
X38240800Y-65343531D01*
X38618800Y-65343531D01*
X38618800Y-65556469D01*
X38660343Y-65765316D01*
X38741831Y-65962045D01*
X38860133Y-66139097D01*
X39010703Y-66289667D01*
X39187755Y-66407969D01*
X39384484Y-66489457D01*
X39593331Y-66531000D01*
X39806269Y-66531000D01*
X40015116Y-66489457D01*
X40211845Y-66407969D01*
X40388897Y-66289667D01*
X40539467Y-66139097D01*
X40657769Y-65962045D01*
X40739257Y-65765316D01*
X40780800Y-65556469D01*
X40780800Y-65343531D01*
X40739257Y-65134684D01*
X40657769Y-64937955D01*
X40539467Y-64760903D01*
X40388897Y-64610333D01*
X40211845Y-64492031D01*
X40015116Y-64410543D01*
X39806269Y-64369000D01*
X39593331Y-64369000D01*
X39384484Y-64410543D01*
X39187755Y-64492031D01*
X39010703Y-64610333D01*
X38860133Y-64760903D01*
X38741831Y-64937955D01*
X38660343Y-65134684D01*
X38618800Y-65343531D01*
X38240800Y-65343531D01*
X38199257Y-65134684D01*
X38117769Y-64937955D01*
X37999467Y-64760903D01*
X37848897Y-64610333D01*
X37671845Y-64492031D01*
X37475116Y-64410543D01*
X37266269Y-64369000D01*
X37053331Y-64369000D01*
X36844484Y-64410543D01*
X36647755Y-64492031D01*
X36470703Y-64610333D01*
X36320133Y-64760903D01*
X36201831Y-64937955D01*
X36120343Y-65134684D01*
X36078800Y-65343531D01*
X35700800Y-65343531D01*
X35659257Y-65134684D01*
X35577769Y-64937955D01*
X35459467Y-64760903D01*
X35308897Y-64610333D01*
X35131845Y-64492031D01*
X34935116Y-64410543D01*
X34726269Y-64369000D01*
X34513331Y-64369000D01*
X34304484Y-64410543D01*
X34107755Y-64492031D01*
X33930703Y-64610333D01*
X33780133Y-64760903D01*
X33661831Y-64937955D01*
X33580343Y-65134684D01*
X33538800Y-65343531D01*
X33160800Y-65343531D01*
X33119257Y-65134684D01*
X33037769Y-64937955D01*
X32919467Y-64760903D01*
X32768897Y-64610333D01*
X32591845Y-64492031D01*
X32395116Y-64410543D01*
X32186269Y-64369000D01*
X31973331Y-64369000D01*
X31764484Y-64410543D01*
X31567755Y-64492031D01*
X31390703Y-64610333D01*
X31240133Y-64760903D01*
X31121831Y-64937955D01*
X31040343Y-65134684D01*
X30998800Y-65343531D01*
X30874233Y-65343531D01*
X30838925Y-65115656D01*
X30748735Y-64868634D01*
X30694837Y-64767797D01*
X30461069Y-64708336D01*
X29719405Y-65450000D01*
X29360195Y-65450000D01*
X28618531Y-64708336D01*
X28384763Y-64767797D01*
X28273866Y-65006242D01*
X28211617Y-65261740D01*
X28200410Y-65524473D01*
X28080800Y-65524473D01*
X28080800Y-65343531D01*
X28039257Y-65134684D01*
X27957769Y-64937955D01*
X27839467Y-64760903D01*
X27688897Y-64610333D01*
X27566771Y-64528731D01*
X28798136Y-64528731D01*
X29539800Y-65270395D01*
X30281464Y-64528731D01*
X30222003Y-64294963D01*
X29983558Y-64184066D01*
X29728060Y-64121817D01*
X29465327Y-64110610D01*
X29205456Y-64150875D01*
X28958434Y-64241065D01*
X28857597Y-64294963D01*
X28798136Y-64528731D01*
X27566771Y-64528731D01*
X27511845Y-64492031D01*
X27315116Y-64410543D01*
X27106269Y-64369000D01*
X26893331Y-64369000D01*
X26684484Y-64410543D01*
X26487755Y-64492031D01*
X26310703Y-64610333D01*
X26160133Y-64760903D01*
X26041831Y-64937955D01*
X25960343Y-65134684D01*
X25918800Y-65343531D01*
X25918800Y-65556469D01*
X25960343Y-65765316D01*
X26041831Y-65962045D01*
X26160133Y-66139097D01*
X26310703Y-66289667D01*
X26487755Y-66407969D01*
X26493801Y-66410473D01*
X26493800Y-70874954D01*
X26491353Y-70899800D01*
X26493800Y-70924646D01*
X26493800Y-70924653D01*
X26501122Y-70998992D01*
X26530055Y-71094374D01*
X26577041Y-71182279D01*
X26640273Y-71259327D01*
X26659585Y-71275176D01*
X29819000Y-74434592D01*
X29819000Y-74576922D01*
X29849013Y-74727809D01*
X29907887Y-74869942D01*
X29993358Y-74997859D01*
X30070730Y-75075231D01*
X29969942Y-75007887D01*
X29827809Y-74949013D01*
X29676922Y-74919000D01*
X29534592Y-74919000D01*
X24965800Y-70350209D01*
X24965800Y-66410473D01*
X24971845Y-66407969D01*
X25148897Y-66289667D01*
X25299467Y-66139097D01*
X25417769Y-65962045D01*
X25499257Y-65765316D01*
X25540800Y-65556469D01*
X25540800Y-65343531D01*
X25499257Y-65134684D01*
X25417769Y-64937955D01*
X25299467Y-64760903D01*
X25148897Y-64610333D01*
X24971845Y-64492031D01*
X24775116Y-64410543D01*
X24566269Y-64369000D01*
X24353331Y-64369000D01*
X24144484Y-64410543D01*
X23956000Y-64488616D01*
X23956000Y-63869854D01*
X23965413Y-63773852D01*
X23987528Y-63700603D01*
X24023452Y-63633039D01*
X24071811Y-63573746D01*
X24130767Y-63524973D01*
X24198074Y-63488580D01*
X24271167Y-63465955D01*
X24365877Y-63456000D01*
X42330146Y-63456000D01*
X42426148Y-63465413D01*
G37*
G04 #@! TD.AperFunction*
D16*
X29594000Y-81275154D02*
X29591553Y-81300000D01*
X29594000Y-81324846D01*
X29594000Y-81324853D01*
X29601322Y-81399192D01*
X29630255Y-81494574D01*
X29677241Y-81582479D01*
X29740473Y-81659527D01*
X29759785Y-81675376D01*
X31594001Y-83509593D01*
X31594001Y-84170277D01*
X31560000Y-84166928D01*
X31525750Y-84170000D01*
X31367000Y-84328750D01*
X31367000Y-84973000D01*
X31387000Y-84973000D01*
X31387000Y-85227000D01*
X31367000Y-85227000D01*
X31367000Y-85247000D01*
X31113000Y-85247000D01*
X31113000Y-85227000D01*
X31100990Y-85227000D01*
X31100990Y-84973000D01*
X31113000Y-84973000D01*
X31113000Y-84328750D01*
X30954250Y-84170000D01*
X30920000Y-84166928D01*
X30795518Y-84179188D01*
X30675820Y-84215498D01*
X30670398Y-84218396D01*
X29306000Y-82853999D01*
X29306000Y-81706575D01*
X29347509Y-81672509D01*
X29413464Y-81592143D01*
X29462473Y-81500453D01*
X29492653Y-81400965D01*
X29502843Y-81297500D01*
X29502843Y-81002500D01*
X29501000Y-80983784D01*
X29571185Y-80926185D01*
X29594000Y-80898385D01*
X29594000Y-81275154D01*
G04 #@! TA.AperFunction,Conductor*
D17*
G36*
X29594000Y-81275154D02*
G01*
X29591553Y-81300000D01*
X29594000Y-81324846D01*
X29594000Y-81324853D01*
X29601322Y-81399192D01*
X29630255Y-81494574D01*
X29677241Y-81582479D01*
X29740473Y-81659527D01*
X29759785Y-81675376D01*
X31594001Y-83509593D01*
X31594001Y-84170277D01*
X31560000Y-84166928D01*
X31525750Y-84170000D01*
X31367000Y-84328750D01*
X31367000Y-84973000D01*
X31387000Y-84973000D01*
X31387000Y-85227000D01*
X31367000Y-85227000D01*
X31367000Y-85247000D01*
X31113000Y-85247000D01*
X31113000Y-85227000D01*
X31100990Y-85227000D01*
X31100990Y-84973000D01*
X31113000Y-84973000D01*
X31113000Y-84328750D01*
X30954250Y-84170000D01*
X30920000Y-84166928D01*
X30795518Y-84179188D01*
X30675820Y-84215498D01*
X30670398Y-84218396D01*
X29306000Y-82853999D01*
X29306000Y-81706575D01*
X29347509Y-81672509D01*
X29413464Y-81592143D01*
X29462473Y-81500453D01*
X29492653Y-81400965D01*
X29502843Y-81297500D01*
X29502843Y-81002500D01*
X29501000Y-80983784D01*
X29571185Y-80926185D01*
X29594000Y-80898385D01*
X29594000Y-81275154D01*
G37*
G04 #@! TD.AperFunction*
D16*
X26287000Y-84953000D02*
X26593750Y-84953000D01*
X26613750Y-84973000D01*
X27273000Y-84973000D01*
X27273000Y-84953000D01*
X27527000Y-84953000D01*
X27527000Y-84973000D01*
X28573000Y-84973000D01*
X28573000Y-84953000D01*
X28827000Y-84953000D01*
X28827000Y-84973000D01*
X28847000Y-84973000D01*
X28847000Y-85227000D01*
X28827000Y-85227000D01*
X28827000Y-85247000D01*
X28573000Y-85247000D01*
X28573000Y-85227000D01*
X27527000Y-85227000D01*
X27527000Y-85247000D01*
X27273000Y-85247000D01*
X27273000Y-85227000D01*
X26976250Y-85227000D01*
X26956250Y-85207000D01*
X26287000Y-85207000D01*
X26287000Y-85227000D01*
X26033000Y-85227000D01*
X26033000Y-85207000D01*
X26020990Y-85207000D01*
X26020990Y-84953000D01*
X26033000Y-84953000D01*
X26033000Y-84933000D01*
X26287000Y-84933000D01*
X26287000Y-84953000D01*
G04 #@! TA.AperFunction,Conductor*
D17*
G36*
X26287000Y-84953000D02*
G01*
X26593750Y-84953000D01*
X26613750Y-84973000D01*
X27273000Y-84973000D01*
X27273000Y-84953000D01*
X27527000Y-84953000D01*
X27527000Y-84973000D01*
X28573000Y-84973000D01*
X28573000Y-84953000D01*
X28827000Y-84953000D01*
X28827000Y-84973000D01*
X28847000Y-84973000D01*
X28847000Y-85227000D01*
X28827000Y-85227000D01*
X28827000Y-85247000D01*
X28573000Y-85247000D01*
X28573000Y-85227000D01*
X27527000Y-85227000D01*
X27527000Y-85247000D01*
X27273000Y-85247000D01*
X27273000Y-85227000D01*
X26976250Y-85227000D01*
X26956250Y-85207000D01*
X26287000Y-85207000D01*
X26287000Y-85227000D01*
X26033000Y-85227000D01*
X26033000Y-85207000D01*
X26020990Y-85207000D01*
X26020990Y-84953000D01*
X26033000Y-84953000D01*
X26033000Y-84933000D01*
X26287000Y-84933000D01*
X26287000Y-84953000D01*
G37*
G04 #@! TD.AperFunction*
D16*
X33707500Y-81827843D02*
X33842252Y-81827843D01*
X34718982Y-82704574D01*
X34718981Y-84983390D01*
X34475376Y-84739785D01*
X34459527Y-84720473D01*
X34420506Y-84688449D01*
X34393464Y-84637857D01*
X34327509Y-84557491D01*
X34247143Y-84491536D01*
X34155453Y-84442527D01*
X34055965Y-84412347D01*
X33952500Y-84402157D01*
X33640990Y-84402157D01*
X33640990Y-81821293D01*
X33707500Y-81827843D01*
G04 #@! TA.AperFunction,Conductor*
D17*
G36*
X33707500Y-81827843D02*
G01*
X33842252Y-81827843D01*
X34718982Y-82704574D01*
X34718981Y-84983390D01*
X34475376Y-84739785D01*
X34459527Y-84720473D01*
X34420506Y-84688449D01*
X34393464Y-84637857D01*
X34327509Y-84557491D01*
X34247143Y-84491536D01*
X34155453Y-84442527D01*
X34055965Y-84412347D01*
X33952500Y-84402157D01*
X33640990Y-84402157D01*
X33640990Y-81821293D01*
X33707500Y-81827843D01*
G37*
G04 #@! TD.AperFunction*
D16*
X36247500Y-81827843D02*
X36382252Y-81827843D01*
X37094001Y-82539593D01*
X37094001Y-84818409D01*
X37015376Y-84739785D01*
X36999527Y-84720473D01*
X36960506Y-84688449D01*
X36933464Y-84637857D01*
X36867509Y-84557491D01*
X36787143Y-84491536D01*
X36695453Y-84442527D01*
X36595965Y-84412347D01*
X36492500Y-84402157D01*
X36180990Y-84402157D01*
X36180990Y-81821293D01*
X36247500Y-81827843D01*
G04 #@! TA.AperFunction,Conductor*
D17*
G36*
X36247500Y-81827843D02*
G01*
X36382252Y-81827843D01*
X37094001Y-82539593D01*
X37094001Y-84818409D01*
X37015376Y-84739785D01*
X36999527Y-84720473D01*
X36960506Y-84688449D01*
X36933464Y-84637857D01*
X36867509Y-84557491D01*
X36787143Y-84491536D01*
X36695453Y-84442527D01*
X36595965Y-84412347D01*
X36492500Y-84402157D01*
X36180990Y-84402157D01*
X36180990Y-81821293D01*
X36247500Y-81827843D01*
G37*
G04 #@! TD.AperFunction*
D16*
X28572998Y-84188590D02*
X28572998Y-84328748D01*
X28414250Y-84170000D01*
X28380000Y-84166928D01*
X28255518Y-84179188D01*
X28135820Y-84215498D01*
X28031095Y-84271475D01*
X27951476Y-84229386D01*
X27831613Y-84193625D01*
X27707077Y-84181935D01*
X27685750Y-84185000D01*
X27527002Y-84343748D01*
X27527002Y-84185000D01*
X27466967Y-84185000D01*
X27498377Y-84126878D01*
X27535235Y-84007348D01*
X27545000Y-83885750D01*
X27386250Y-83727000D01*
X26727000Y-83727000D01*
X26727000Y-83747000D01*
X26473000Y-83747000D01*
X26473000Y-83727000D01*
X26453000Y-83727000D01*
X26453000Y-83473000D01*
X26473000Y-83473000D01*
X26473000Y-83453000D01*
X26727000Y-83453000D01*
X26727000Y-83473000D01*
X27386250Y-83473000D01*
X27545000Y-83314250D01*
X27535235Y-83192652D01*
X27516588Y-83132179D01*
X28572998Y-84188590D01*
G04 #@! TA.AperFunction,Conductor*
D17*
G36*
X28572998Y-84188590D02*
G01*
X28572998Y-84328748D01*
X28414250Y-84170000D01*
X28380000Y-84166928D01*
X28255518Y-84179188D01*
X28135820Y-84215498D01*
X28031095Y-84271475D01*
X27951476Y-84229386D01*
X27831613Y-84193625D01*
X27707077Y-84181935D01*
X27685750Y-84185000D01*
X27527002Y-84343748D01*
X27527002Y-84185000D01*
X27466967Y-84185000D01*
X27498377Y-84126878D01*
X27535235Y-84007348D01*
X27545000Y-83885750D01*
X27386250Y-83727000D01*
X26727000Y-83727000D01*
X26727000Y-83747000D01*
X26473000Y-83747000D01*
X26473000Y-83727000D01*
X26453000Y-83727000D01*
X26453000Y-83473000D01*
X26473000Y-83473000D01*
X26473000Y-83453000D01*
X26727000Y-83453000D01*
X26727000Y-83473000D01*
X27386250Y-83473000D01*
X27545000Y-83314250D01*
X27535235Y-83192652D01*
X27516588Y-83132179D01*
X28572998Y-84188590D01*
G37*
G04 #@! TD.AperFunction*
M02*
